<?xml version="1.0" encoding="utf-8"?>
<!-- Generator: Adobe Illustrator 24.0.2, SVG Export Plug-In . SVG Version: 6.00 Build 0)  -->
<svg version="1.1" id="Layer_1" xmlns="http://www.w3.org/2000/svg" xmlns:xlink="http://www.w3.org/1999/xlink" x="0px" y="0px"
	 viewBox="0 0 768.4 384.9" style="enable-background:new 0 0 768.4 384.9;" xml:space="preserve">
<style type="text/css">
	.st0{opacity:0.56;fill:#FFFFFF;enable-background:new    ;}
	.st1{fill:#3FA9F5;}
	.st2{fill:#CCCCCC;}
	.st3{fill:#B3B3B3;}
	.st4{opacity:0.45;fill:#FFFFFF;enable-background:new    ;}
	.st5{opacity:0.3;fill:#FFFFFF;enable-background:new    ;}
	.st6{fill:#FAB085;}
	.st7{fill:#4CADBC;}
	.st8{opacity:0.26;enable-background:new    ;}
	.st9{fill:#E6E6E6;}
	.st10{fill:#ED1C24;}
	.st11{fill:#FFFFFF;}
	.st12{fill:none;}
	.st13{fill:#F48B6C;}
	.st14{fill:#F58D6C;}
	.st15{opacity:0.5;}
	.st16{fill:#8E3926;}
	.st17{fill:#D75265;}
	.st18{fill:#333333;}
	.st19{fill:#754C24;}
	.st20{fill:#EA8063;}
	.st21{fill:#772C20;}
	.st22{fill:#702720;}
	.st23{opacity:0.16;}
	.st24{fill:#42210B;}
	.st25{fill:#D8EA3E;}
	.st26{fill:#B0B116;}
	.st27{opacity:0.75;}
	.st28{fill:#7AC943;}
	.st29{opacity:0.56;}
	.st30{opacity:0.47;}
	.st31{opacity:0.4;}
	.st32{fill:#FF931E;}
	.st33{fill:#FF1D25;}
	.st34{fill:#9D532E;}
	.st35{fill:#FF0000;}
	.st36{fill:#9AC4F8;}
	.st37{fill:#263238;}
	.st38{fill:#B6C2CC;}
	.st39{fill:#414D53;}
	.st40{fill:#82BAFF;}
	.st41{fill:#C7D3DE;}
</style>
<g>
	<g id="XMLID_6_">
		
			<rect id="XMLID_9_" x="613.5" y="160.2" transform="matrix(1 -2.003403e-03 2.003403e-03 1 -0.3374 1.2356)" class="st0" width="6.1" height="17.8"/>
		<path id="XMLID_48_" class="st1" d="M613.7,202.2c0,1.7,1.3,3.1,3.1,3.1c1.7,0,3.1-1.3,3.1-3.1v-24.1h-6.1L613.7,202.2z
			 M618.1,200.5c0.6,0,1,0.4,1,1s-0.4,1-1,1c-0.6,0-1-0.4-1-1S617.6,200.5,618.1,200.5z M615.6,199.3c-0.8,0-1.3-0.6-1.3-1.3
			c0-0.8,0.6-1.3,1.3-1.3c0.8,0,1.3,0.6,1.3,1.3C617,198.6,616.4,199.3,615.6,199.3z M617.4,185.2c0.6,0,1,0.4,1,1s-0.4,1-1,1
			s-1-0.4-1-1S616.8,185.2,617.4,185.2z M617.7,179.1c0.8,0,1.3,0.6,1.3,1.3c0,0.8-0.6,1.3-1.3,1.3c-0.8,0-1.3-0.6-1.3-1.3
			C616.4,179.6,617,179.1,617.7,179.1z"/>
		<path id="XMLID_52_" class="st2" d="M621.9,202.2v-42.6h0.4c0.6,0,1-0.4,1-1v-0.4c0-0.6-0.4-1-1-1h-11.5c-0.6,0-1,0.4-1,1v0.4
			c0,0.6,0.4,1,1,1h0.4l0,0h10.5v0.8h-2.3v17.8v24.1c0,1.7-1.3,3.1-3.1,3.1c-1.7,0-3.1-1.3-3.1-3.1v-24.1l0.2-17.8h-2.1v-0.2v42
			c0,2.9,2.3,5.3,5.2,5.3c0.4,0,0.8,0,1-0.2c0.2,0,0.4,0,0.6-0.2c0.6-0.2,1-0.4,1.3-0.8c0.2,0,0.2-0.2,0.4-0.4c0.6-0.4,1-1,1.3-1.5
			C621.8,203.9,621.9,203.1,621.9,202.2z"/>
		<polygon id="XMLID_53_" class="st3" points="613.7,160.2 619.8,160.2 621.9,160.2 621.9,159.4 611.4,159.6 611.4,159.6 611.6,160 
			611.6,160.2 		"/>
		<path id="XMLID_54_" class="st4" d="M617.2,171.4c0-1-0.8-1.5-1.5-1.5c-1,0-1.5,0.8-1.5,1.5v23.5c0,1,0.8,1.5,1.5,1.5
			c1,0,1.5-0.8,1.5-1.5V171.4z"/>
		<path id="XMLID_56_" class="st1" d="M615.6,196.5c-0.8,0-1.3,0.6-1.3,1.3c0,0.8,0.6,1.3,1.3,1.3c0.8,0,1.3-0.6,1.3-1.3
			C617,197,616.4,196.5,615.6,196.5z"/>
		<path id="XMLID_55_" class="st5" d="M615.6,196.5c-0.8,0-1.3,0.6-1.3,1.3c0,0.8,0.6,1.3,1.3,1.3c0.8,0,1.3-0.6,1.3-1.3
			C617,197,616.4,196.5,615.6,196.5z"/>
		<path id="XMLID_58_" class="st1" d="M617.4,186.9c0.6,0,1-0.4,1-1s-0.4-1-1-1s-1,0.4-1,1C616.4,186.5,616.8,186.9,617.4,186.9z"/>
		<path id="XMLID_57_" class="st5" d="M617.4,186.9c0.6,0,1-0.4,1-1s-0.4-1-1-1s-1,0.4-1,1C616.4,186.5,616.8,186.9,617.4,186.9z"/>
		<path id="XMLID_60_" class="st1" d="M618.1,202.2c0.6,0,1-0.4,1-1s-0.4-1-1-1c-0.6,0-1,0.4-1,1
			C617.2,201.8,617.6,202.2,618.1,202.2z"/>
		<path id="XMLID_59_" class="st5" d="M618.1,202.2c0.6,0,1-0.4,1-1s-0.4-1-1-1c-0.6,0-1,0.4-1,1
			C617.2,201.8,617.6,202.2,618.1,202.2z"/>
		<path id="XMLID_62_" class="st1" d="M616.4,180.4c0,0.8,0.6,1.3,1.3,1.3c0.8,0,1.3-0.6,1.3-1.3c0-0.8-0.6-1.3-1.3-1.3
			C617,179.1,616.4,179.6,616.4,180.4z"/>
		<path id="XMLID_61_" class="st5" d="M616.4,180.4c0,0.8,0.6,1.3,1.3,1.3c0.8,0,1.3-0.6,1.3-1.3c0-0.8-0.6-1.3-1.3-1.3
			C617,179.1,616.4,179.6,616.4,180.4z"/>
	</g>
	<path id="XMLID_13_" class="st6" d="M628.4,193.8c-0.2-0.6-0.6-1.1-1.1-1.3c1.5-0.6,2.5-2.3,2.1-4c-0.2-1.1-1-1.9-1.9-2.5
		c1-0.8,1.5-1.7,1.5-3.1c0-1.7-1.1-3.2-2.7-3.6c1.3-0.4,2.5-1.7,2.7-3.2c0.2-2.1-1.1-4-3.2-4.2l-9.2-1.1c-2.1-0.2-4,1.1-4.2,3.2
		c-0.2,1.9,1,3.6,2.7,4.2c0.2,0,0.4,0.2,0.6,0.2l6.3,0.8l-5.9-0.2c-2.1,0-3.8,1.7-3.8,3.8c0,1.5,0.8,2.9,2.1,3.4
		c0.6,0.2,1,0.4,1.5,0.4l5.3,0.2l-4.2,1c-1.9,0.4-3.1,2.3-2.7,4.2c0.4,1.3,1.3,2.3,2.7,2.7c0.4,0.2,1,0.2,1.5,0l0.8-0.2l-1.3,0.6
		c-1.5,0.6-2.5,2.5-1.7,4.2c0.4,0.8,0.8,1.3,1.5,1.7c0.8,0.4,1.7,0.4,2.7,0l6.5-2.7C628.2,197.2,629,195.3,628.4,193.8z"/>
	<g>
		<g id="XMLID_335_">
			<g id="XMLID_352_">
				<path id="XMLID_623_" class="st6" d="M375.9,185.8l-5.7-11.1l0.6-9.9c0.2-2.1-1.5-4-3.6-4l0,0c-1.1,0-2.1,1-2.3,2.1l-1.3,9.2
					c-0.6,3.2-3.4,5.7-6.7,5.3L352,177l-4,22.4l24.8,1.1L375.9,185.8z"/>
			</g>
			<g id="XMLID_351_">
				<polygon id="XMLID_621_" class="st7" points="384.3,190 375.9,185.8 372.6,200.7 379,205.6 				"/>
			</g>
			<g id="XMLID_1_">
				<path id="XMLID_3_" class="st8" d="M354.7,186c0.4,0.2,1.3,1,2.7,1c1.1,0,2.1-0.6,2.5-1l0.6-0.4l0.6,0.4
					c0.4,0.4,1.3,0.8,2.7,0.8l0,0c1.1,0,2.3-0.4,2.7-0.8l-3.2-7.8v-19.3h-5.7v19.5L354.7,186L354.7,186z"/>
				<path id="XMLID_25_" class="st9" d="M378,203l-11.1-25.8v-22.7h-13.2v22.9l-10.5,25.8c-1.1,3.1-1,6.3,1,9c1.7,2.7,4.8,4.2,8,4.2
					h17.2c3.2,0,6.3-1.5,8-4.2C379,209.3,379.3,206,378,203z M349,209.6c-1.1-1.7-1.3-4-0.6-5.9c1.1-2.7,2.1-5.3,3.2-8
					c1-2.5,1.9-5.2,3.1-7.6c0.8,0.4,1.7,0.8,2.9,0.8c1.3,0,2.5-0.4,3.1-0.8c0.8,0.4,1.9,1.1,3.2,1.1l0,0c1.1,0,2.1-0.4,2.9-0.8
					l6.5,15.5c0.8,1.7,0.6,4-0.6,5.7c-1,1.5-2.7,2.9-4.4,2.9h-14.5C351.6,212.5,349.9,211.2,349,209.6z M357.4,158.8h5.7v19.3
					l3.2,7.8c-0.4,0.4-1.5,0.8-2.7,0.8l0,0c-1.3,0-2.3-0.4-2.7-0.8l-0.6-0.4l-0.6,0.4c-0.4,0.4-1.3,1-2.5,1c-1.3,0-2.3-0.6-2.7-1
					h-0.2l3.1-7.6v-19.5H357.4z"/>
				<path id="XMLID_29_" class="st10" d="M372.3,209.6c1.1-1.7,1.3-4,0.6-5.7l-6.5-15.5c-0.8,0.4-1.7,0.8-2.9,0.8l0,0
					c-1.3,0-2.5-0.6-3.2-1.1c-0.8,0.4-1.7,0.8-3.1,0.8c-1.1,0-2.1-0.4-2.9-0.8c-1,2.5-2.1,5.2-3.1,7.6c-1,2.7-2.1,5.3-3.2,8
					c-0.8,1.7-0.6,4.2,0.6,5.9c1,1.5,2.7,2.9,4.4,2.9h14.5C369.6,212.5,371.3,211.2,372.3,209.6z M366.9,205.2c0,1-0.8,1.7-1.7,1.7
					s-1.7-0.8-1.7-1.7s0.8-1.7,1.7-1.7S366.9,204.3,366.9,205.2z M364.2,192.3c0.6,0,1.1,0.6,1.1,1.1c0,0.6-0.6,1.1-1.1,1.1
					c-0.6,0-1.1-0.6-1.1-1.1S363.7,192.3,364.2,192.3z M361,195.9c1,0,1.7,0.8,1.7,1.7c0,1-0.8,1.7-1.7,1.7s-1.7-0.8-1.7-1.7
					C359.3,196.7,360,195.9,361,195.9z M356.4,193.8c0.8,0,1.3,0.6,1.3,1.3c0,0.8-0.6,1.3-1.3,1.3c-0.8,0-1.3-0.6-1.3-1.3
					C355.1,194.4,355.6,193.8,356.4,193.8z M355.3,200.5c1.3,0,2.3,1,2.3,2.3s-1,2.3-2.3,2.3s-2.3-1-2.3-2.3
					C353,201.6,353.9,200.5,355.3,200.5z"/>
				<path id="XMLID_40_" class="st11" d="M356.4,196.3c0.8,0,1.3-0.6,1.3-1.3c0-0.8-0.6-1.3-1.3-1.3c-0.8,0-1.3,0.6-1.3,1.3
					C355.1,195.7,355.6,196.3,356.4,196.3z"/>
				<path id="XMLID_41_" class="st11" d="M361,199.1c1,0,1.7-0.8,1.7-1.7c0-1-0.8-1.7-1.7-1.7s-1.7,0.8-1.7,1.7
					C359.3,198.6,360,199.1,361,199.1z"/>
				<path id="XMLID_42_" class="st11" d="M355.3,205.2c1.3,0,2.3-1,2.3-2.3s-1-2.3-2.3-2.3s-2.3,1-2.3,2.3
					C353,204.1,353.9,205.2,355.3,205.2z"/>
				<path id="XMLID_43_" class="st11" d="M363.7,205.2c0,1,0.8,1.7,1.7,1.7c1,0,1.7-0.8,1.7-1.7s-0.8-1.7-1.7-1.7
					C364.2,203.5,363.7,204.3,363.7,205.2z"/>
				<path id="XMLID_44_" class="st11" d="M364.2,194.5c0.6,0,1.1-0.6,1.1-1.1c0-0.6-0.6-1.1-1.1-1.1c-0.6,0-1.1,0.6-1.1,1.1
					S363.7,194.5,364.2,194.5z"/>
			</g>
			<path id="XMLID_2_" class="st6" d="M360.4,175.3l-9.2-1.5c-2.1-0.4-4,1-4.4,3.1c-0.2,1.1,0,2.1,0.8,2.9c-1,0.4-1.7,1-2.3,2.1
				c-0.8,1.5-0.2,3.4,1,4.4c-1.3,0.2-2.7,1-3.2,2.3c-0.6,1.1-0.4,2.5,0.2,3.4c-0.4,0.2-0.8,0.4-1.1,0.6c-1.3,1.1-1.5,3.2-0.4,4.4
				l4.6,5.3c0.6,0.8,1.5,1.1,2.5,1.1c0.8,0,1.5-0.2,2.1-0.8c1.3-1.1,1.5-3.2,0.4-4.4l-2.5-2.9l4.6,2.1c0.6,0.2,1.1,0.4,1.5,0.4
				c1.5,0,2.9-0.8,3.4-2.3c0.8-1.5,0.2-3.4-1-4.4c1.3-0.2,2.7-1,3.2-2.3c1-1.9,0-4.2-1.9-5l-3.4-1.5l3.8,0.6c0.2,0,0.4,0,0.6,0
				c1.9,0,3.4-1.3,3.8-3.2C363.9,177.7,362.5,175.6,360.4,175.3z"/>
		</g>
		<g id="XMLID_334_">
			<path id="XMLID_585_" class="st6" d="M601.3,185.8l5.7-11.1l-0.6-9.9c-0.2-2.1,1.5-4,3.6-4h1.5l2.3,18L617,201l-12.4-0.6
				L601.3,185.8z"/>
		</g>
		<g id="XMLID_333_">
			<polygon id="XMLID_583_" class="st7" points="592.9,190 601.3,185.8 604.6,200.7 598.3,205.6 			"/>
		</g>
		<path id="XMLID_14_" class="st11" d="M592.5,188.8l-26,11.7c-1.7,0.8-3.8,0.6-5.3-0.6L530.6,176l0,0l-0.2-0.4
			c-12.4-3.6-38-6.1-41.8-6.5l0,0c0,0,0.2,0,0,0c-0.2,0,0,0,0,0l0,0c-3.8,0.4-29.4,2.9-41.8,6.5l-0.2,0.6l-0.2-0.2l-29,22.7
			c-2.5,1.9-5.7,2.3-8.6,1l-24.3-10.9l-6.1,18l32.1,20.2c3.8,2.5,8.8,2.1,12.4-0.6l19.5-15.3l-10.5,90.2H488h0.6h56.2l-10.5-90
			l19.9,15.7c3.2,2.5,7.8,2.9,11.3,0.6l32.7-20.6L592.5,188.8z"/>
		<g id="XMLID_12_">
			<path id="XMLID_15_" class="st11" d="M488,168.2c-1.3-0.2-9.2-0.8-22.2,3.4c-0.8,1-6.9,10.7-9.4,28.5l6.9,1.7l-8.2,6.7
				c1.5,2.9,16.4,32.5,32.9,49.3V168.2z"/>
			<path id="XMLID_22_" class="st11" d="M520.7,200.1c-2.5-17.6-8.6-27.3-9.2-28.5c-13.2-4.2-21.6-3.6-22.2-3.4v89.4
				c15.1-16.8,31.1-46.4,32.9-49.3l-8.2-6.5L520.7,200.1z"/>
			<path id="XMLID_66_" class="st2" d="M515.2,202l6.1-1.5v-0.2c-2.5-18.9-9.6-29-9.6-29l0,0h-0.2c-14.7-4.8-22.9-3.4-23.1-3.4l0,0
				l0,0c-0.4,0-8-1.1-22.9,3.4h-0.2l0,0c0,0.2-6.9,10.1-9.6,29v0.2l6.1,1.5l-7.6,6.1l0.2,0.2c0.2,0.4,17.2,32.7,33.6,50.2v0.6
				l0.4-0.4l0.2,0.4v-0.4l0,0c16.4-17.6,33.6-50.1,33.8-50.2l0.2-0.2L515.2,202z M489.4,257.6v-89.4c0.6-0.2,9.2-0.8,22.2,3.4
				c0.8,1,6.9,10.7,9.2,28.5l-6.7,1.7l8.2,6.5C520.5,211.2,504.5,240.8,489.4,257.6z M463.4,201.6l-6.9-1.7
				c2.5-17.6,8.6-27.3,9.4-28.5c13-4.2,21-3.6,22.2-3.4v89.4c-16.4-16.8-31.3-46.4-32.9-49.3L463.4,201.6z"/>
		</g>
		<g id="XMLID_19_">
			<path id="XMLID_21_" class="st12" d="M488.8,182.7c0,0-12.4-11.5-13.8-12.6L488.8,182.7L488.8,182.7z"/>
			<path id="XMLID_70_" class="st12" d="M502.5,170.1c-1.1,1.1-13.6,12.4-13.8,12.6L502.5,170.1z"/>
			<path id="XMLID_71_" class="st6" d="M474.8,161.5v8.6c1.9,1.1,13.9,12.6,13.9,12.6l0,0c0.2-0.2,12.6-11.5,13.8-12.6
				c0-0.8,0-1.3,0-1.9c0-3.6,0-4.4,0-6.7c-2.5,1.1-7.6,3.1-14.1,3.1C482.3,164.7,477.3,162.8,474.8,161.5z"/>
			<line id="XMLID_72_" class="st12" x1="502.5" y1="168.2" x2="502.5" y2="161.3"/>
			<path id="XMLID_74_" class="st13" d="M474.8,159.2v2.3c2.5,1.1,7.5,3.1,13.8,3.1c6.5,0,11.5-1.9,14.1-3.1c0-0.8,0-1.9,0-3.2
				c-5,1.1-10.7,1.9-16.2,1.9C482.5,160.2,478.5,160,474.8,159.2z"/>
			<path id="XMLID_75_" class="st6" d="M546.5,90.1h-1V72.9c0-32.7-26.4-59.2-59-59.2l0,0c-32.7,0-59,26.6-59,59.2v17.2h0.2
				c-5.7,0-10.3,5.2-10.3,10.7v9.2c0,6.5,5.2,11.7,11.7,11.8c5.3,18.9,23.3,33.6,46,37.4c3.6,0.6,7.5,1,11.5,1
				c5.5,0,10.9-0.6,16-1.9c20.4-4.8,36.5-18.5,41.5-36.1h1.3c6.5,0,12-5.3,12-11.8v-9.6C557.4,94.8,552.4,90.1,546.5,90.1z"/>
			<polygon id="XMLID_80_" class="st7" points="488.8,182.7 488.8,182.7 475,170.1 471.4,171.1 488.8,250.1 506.2,171.2 
				502.5,170.1 			"/>
		</g>
		<g id="XMLID_309_">
			<path id="XMLID_527_" class="st14" d="M478.3,114.7c-0.2-0.6,0.2-1.1,0.6-1c1.9,1,4.8,1.9,8.4,1.9c3.4,0,6.3-1,8.2-1.9
				c0.4-0.2,1,0.4,0.6,1C492,122.1,482.3,122,478.3,114.7z"/>
		</g>
		<g id="XMLID_308_" class="st15">
			<path id="XMLID_245_" class="st14" d="M482.3,150.8c-0.2-0.2,0-0.6,0.4-0.6c1,0.6,2.7,1.1,4.6,1c1.9,0,3.4-0.6,4.4-1.1
				c0.2-0.2,0.6,0.2,0.4,0.6C489.9,154.8,484.6,154.6,482.3,150.8z"/>
		</g>
		<g id="XMLID_4_">
			<path id="XMLID_5_" class="st16" d="M541.1,99.2L541.1,99.2L541.1,99.2z"/>
			<path id="XMLID_369_" class="st16" d="M514.8,6c-63.4-13.6-77.2,12.6-80,23.7c-1.1-2.7-2.1-5.7-2.1-5.5
				c-2.9,4.2-2.9,7.3-2.3,10.9c-8.4,2.5-27.3,13.2-9.9,58.6c0,0,9.7-6.1,11.3,3.8c0,0,1.9-18.3,10.1-27.5c8.2-9.2,7.6-12,8-18.9
				c0,0,16,5.2,31.3,7.6c4.6,0.8,9.2,1.9,13.4,3.8c4,1.7,7.6,3.8,11.3,6.3c-3.1-3.4-6.3-6.3-9.7-9c0.2,0,0.4,0,0.6,0
				c2.9-0.2,6.1-0.2,9.6,0c3.1,1.3,5.5,3.6,6.7,7.8c0.2-2.9-0.6-5.3-1.7-7.3c14.7,2.3,29.8,11.1,30,39.2c0-0.8,0-10.5,9.9-7.6
				C551.1,91.6,583,20.5,514.8,6z"/>
		</g>
		<g id="XMLID_297_">
			<path id="XMLID_515_" class="st16" d="M463.8,130.4c4.8,1.9,12.6,4.4,22.7,4.4c10.3,0,18.3-2.5,23.1-4.4
				c-2.9,10.7-11.1,17.8-22.7,17.8C477,148.1,468.5,143.9,463.8,130.4z"/>
		</g>
		<g id="XMLID_296_">
			<path id="XMLID_513_" class="st17" d="M473.7,144.5c3.8,2.7,8.4,3.6,13.2,3.6c5,0,9.4-1.3,13-3.6c-2.7-4.2-7.6-7.1-13-7.1
				C481.3,137.4,476.4,140.3,473.7,144.5z"/>
		</g>
		<g id="XMLID_289_">
			<g id="XMLID_293_">
				<path id="XMLID_507_" class="st11" d="M470.6,100.6c0-4.4-3.6-8-8-8c-4.4,0-8,3.6-8,8c0,4.4,3.6,8,8,8
					C467,108.6,470.6,105,470.6,100.6z"/>
			</g>
			<g id="XMLID_292_">
				<path id="XMLID_505_" class="st18" d="M466.8,100.6c0-2.3-1.9-4.2-4.2-4.2s-4.2,1.9-4.2,4.2c0,2.3,1.9,4.2,4.2,4.2
					S466.8,102.9,466.8,100.6z"/>
			</g>
			<g id="XMLID_291_">
				<path id="XMLID_503_" class="st11" d="M466.1,99c0-1-0.8-1.9-1.9-1.9s-1.9,0.8-1.9,1.9c0,1,0.8,1.9,1.9,1.9S466.1,100,466.1,99z
					"/>
			</g>
			<g id="XMLID_290_">
				<path id="XMLID_250_" class="st19" d="M452.3,95c-0.2,0-0.6,0-0.8-0.2c-0.8-0.4-1-1.3-0.6-1.9c6.1-10.3,16.6-5.7,16.6-5.7
					c0.8,0.4,1,1.1,0.8,1.9c-0.4,0.8-1.1,1-1.9,0.8c-0.4-0.2-8.4-3.6-13,4.6C453.3,94.8,452.9,95,452.3,95z"/>
			</g>
		</g>
		<g id="XMLID_284_">
			<g id="XMLID_288_">
				<path id="XMLID_498_" class="st11" d="M504.5,100.6c0-4.4,3.6-8,8-8s8,3.6,8,8c0,4.4-3.6,8-8,8
					C508.1,108.6,504.5,105,504.5,100.6z"/>
			</g>
			<g id="XMLID_287_">
				<path id="XMLID_496_" class="st18" d="M508.3,100.6c0-2.3,1.9-4.2,4.2-4.2s4.2,1.9,4.2,4.2c0,2.3-1.9,4.2-4.2,4.2
					S508.3,102.9,508.3,100.6z"/>
			</g>
			<g id="XMLID_286_">
				<path id="XMLID_494_" class="st11" d="M509,99c0-1,0.8-1.9,1.9-1.9c1,0,1.9,0.8,1.9,1.9c0,1-0.8,1.9-1.9,1.9
					C509.8,100.8,509,100,509,99z"/>
			</g>
			<g id="XMLID_285_">
				<path id="XMLID_246_" class="st19" d="M522.8,95c-0.6,0-1-0.2-1.1-0.8c-4.8-8-12.8-4.6-13-4.6c-0.8,0.4-1.5,0-1.9-0.8
					c-0.4-0.8,0-1.5,0.8-1.9c0.2,0,10.7-4.6,16.6,5.7c0.4,0.8,0.2,1.5-0.6,1.9C523.2,94.8,523,95,522.8,95z"/>
			</g>
		</g>
		<g id="XMLID_283_">
			<polygon id="XMLID_489_" class="st20" points="765.1,328.5 2.3,328.5 115.3,298.3 652.2,298.3 			"/>
		</g>
		<g id="XMLID_282_">
			<rect id="XMLID_487_" x="2.3" y="328.5" class="st16" width="763.3" height="14.3"/>
		</g>
		<g id="XMLID_281_">
			<rect id="XMLID_485_" x="16.8" y="342.8" class="st21" width="733.5" height="3.2"/>
		</g>
		<g id="XMLID_280_">
			<rect id="XMLID_483_" x="20.7" y="346" class="st22" width="725.6" height="39.2"/>
		</g>
		<g id="XMLID_279_">
			<path id="XMLID_481_" class="st14" d="M428,97.1L428,97.1v16.6l0,0c-3.1,0-5.5-2.5-5.5-5.5v-5.7C422.7,99.6,425.2,97.1,428,97.1z
				"/>
		</g>
		<g id="XMLID_278_">
			<path id="XMLID_479_" class="st14" d="M546.7,98.5L546.7,98.5v15.3l0,0c3.1,0,5.5-2.5,5.5-5.5V104
				C552.2,100.9,549.7,98.5,546.7,98.5z"/>
		</g>
		<g id="XMLID_277_" class="st23">
			<ellipse id="XMLID_237_" class="st17" cx="455.2" cy="115.8" rx="8.4" ry="3.2"/>
		</g>
		<g id="XMLID_276_" class="st23">
			<ellipse id="XMLID_32_" class="st17" cx="521.1" cy="115.8" rx="8.4" ry="3.2"/>
		</g>
		<g id="XMLID_272_">
			<path id="XMLID_470_" class="st24" d="M556.2,86.4c-0.4-1.7-1.9-2.9-3.8-2.5l-8.8,1.7c-4.6-8.4-13.4-13.9-23.7-13.9
				c-11.5,0-21,7.1-25,17c-2.1-0.8-4.6-1.5-7.6-1.5h-0.2c-2.7,0-5.3,0.6-7.6,1.5c-3.8-10.1-13.8-17.2-25-17.2
				c-10.1,0-19.1,5.7-23.7,13.9l-8.6-1.7c-1.7-0.4-3.4,0.8-3.8,2.5c-0.4,1.7,0.8,3.4,2.5,3.8l7.5,1.5c-0.6,2.1-1,4.6-1,6.9
				c0,14.9,12,26.9,26.9,26.9s26.9-12,26.9-26.9c0-1.1,0-2.5-0.2-3.6c1.5-0.8,3.6-1.7,6.1-1.7c0,0,0,0,0.2,0c2.5,0,4.6,0.8,6.1,1.5
				c-0.2,1.1-0.2,2.5-0.2,3.6c0,14.9,12,26.9,26.9,26.9s26.9-12,26.9-26.9c0-2.3-0.4-4.6-1-6.9l7.5-1.5
				C555.5,89.7,556.6,88.1,556.2,86.4z M454.6,118.9c-11.3,0-20.6-9.2-20.6-20.6c0-11.3,9.2-20.6,20.6-20.6
				c11.3,0,20.6,9.2,20.6,20.6C475,109.7,465.9,118.9,454.6,118.9z M520.3,118.9c-11.3,0-20.6-9.2-20.6-20.6
				c0-11.3,9.2-20.6,20.6-20.6c11.3,0,20.6,9.2,20.6,20.6C540.8,109.7,531.6,118.9,520.3,118.9z"/>
		</g>
		<g id="XMLID_206_">
			<g id="XMLID_208_">
				<path id="XMLID_397_" class="st25" d="M425.6,314.9H411c-6.7,0-12-4.6-12-10.3l0,0h38.6l0,0
					C437.6,310.3,432.2,314.9,425.6,314.9z"/>
			</g>
			<g id="XMLID_207_">
				<path id="XMLID_395_" class="st26" d="M437.8,304.6h-39.9c-1,0-1.5-0.8-1.5-1.5l0,0c0-1,0.8-1.5,1.5-1.5h39.9
					c1,0,1.5,0.8,1.5,1.5l0,0C439.5,303.8,438.7,304.6,437.8,304.6z"/>
			</g>
		</g>
		<g id="XMLID_203_">
			<path id="XMLID_392_" class="st11" d="M485,314.5h-19.1c-2.9,0-5.3-2.3-5.3-5.3v-44.3h29.6v44.3C490.1,312,487.8,314.5,485,314.5
				z"/>
		</g>
		<g id="XMLID_198_">
			<path id="XMLID_388_" class="st2" d="M488,283.4v25.8c0,1.7-1.3,3.1-3.1,3.1h-19.1c-1.7,0-3.1-1.3-3.1-3.1v-25.8H488
				 M490.1,282.2h-29.6v26.9c0,2.9,2.3,5.3,5.3,5.3H485c2.9,0,5.3-2.3,5.3-5.3v-28.1v1.1H490.1z"/>
		</g>
		<g id="XMLID_197_">
			<rect id="XMLID_227_" x="488" y="246.5" class="st2" width="1.3" height="51.8"/>
		</g>
		<g id="XMLID_196_">
			<path id="XMLID_384_" class="st2" d="M490.5,282.2h-30c-0.6,0-1.1-0.6-1.1-1.1l0,0c0-0.6,0.6-1.1,1.1-1.1h30
				c0.6,0,1.1,0.6,1.1,1.1l0,0C491.7,281.9,491.1,282.2,490.5,282.2z"/>
		</g>
		<g id="XMLID_195_">
			<rect id="XMLID_382_" x="460.5" y="282.2" class="st3" width="29.6" height="1"/>
		</g>
		<g id="XMLID_192_" class="st27">
			<g id="XMLID_299_">
				<path id="XMLID_380_" class="st28" d="M485,314.5h-19.1c-2.9,0-5.3-2.3-5.3-5.3V291h29.6v18.1C490.1,312,487.8,314.5,485,314.5z
					"/>
			</g>
		</g>
		<g id="XMLID_191_" class="st29">
			<path id="XMLID_228_" class="st11" d="M464.9,307.1c-1,0-1.5-0.8-1.5-1.5v-20.1c0-1,0.8-1.5,1.5-1.5c0.8,0,1.5,0.8,1.5,1.5v20.1
				C466.6,306.3,465.9,307.1,464.9,307.1z"/>
		</g>
		<g id="XMLID_34_" class="st30">
			<g id="XMLID_37_">
				<path id="XMLID_375_" class="st11" d="M481.7,298.3c0-1-0.8-1.7-1.7-1.7s-1.7,0.8-1.7,1.7s0.8,1.7,1.7,1.7
					C481,299.8,481.7,299.2,481.7,298.3z"/>
			</g>
			<g id="XMLID_36_">
				<path id="XMLID_373_" class="st11" d="M476.8,303.4c0-1.3-1-2.3-2.3-2.3s-2.3,1-2.3,2.3s1,2.3,2.3,2.3
					C475.6,305.9,476.8,304.8,476.8,303.4z"/>
			</g>
			<g id="XMLID_35_">
				<path id="XMLID_371_" class="st11" d="M485.9,305.9c0-1-0.8-1.7-1.7-1.7s-1.7,0.8-1.7,1.7s0.8,1.7,1.7,1.7
					C485.2,307.4,485.9,306.7,485.9,305.9z"/>
			</g>
		</g>
		<g id="XMLID_8_">
			<g id="XMLID_215_">
				<g id="XMLID_226_" class="st31">
					<path id="XMLID_424_" class="st11" d="M578.6,308.8L578.6,308.8c-2.9,0-5.3-2.3-5.3-5.3v-42.6h10.5v42.6
						C583.9,306.5,581.4,308.8,578.6,308.8z"/>
				</g>
				<g id="XMLID_216_" class="st27">
					<g id="XMLID_199_">
						<path id="XMLID_414_" class="st32" d="M578.6,308.8L578.6,308.8c-2.9,0-5.3-2.3-5.3-5.3v-33.8h10.5v33.8
							C583.9,306.5,581.4,308.8,578.6,308.8z"/>
					</g>
				</g>
				<g id="XMLID_221_">
					<path id="XMLID_420_" class="st2" d="M581.6,261.6v42c0,1.7-1.3,3.1-3.1,3.1c-1.7,0-3.1-1.3-3.1-3.1v-42H581.6 M583.9,260.8
						h-10.5v42.6c0,2.9,2.3,5.3,5.3,5.3c2.9,0,5.3-2.3,5.3-5.3v-42.6H583.9z"/>
				</g>
				<g id="XMLID_220_">
					<path id="XMLID_418_" class="st2" d="M584.1,260.8H573c-0.6,0-1.1-0.6-1.1-1.1l0,0c0-0.6,0.6-1.1,1.1-1.1h11.1
						c0.6,0,1.1,0.6,1.1,1.1l0,0C585.3,260.5,584.7,260.8,584.1,260.8z"/>
				</g>
				<g id="XMLID_219_">
					<rect id="XMLID_416_" x="573.2" y="260.8" class="st3" width="10.5" height="0.8"/>
				</g>
			</g>
			<g id="XMLID_211_" class="st31">
				<path id="XMLID_238_" class="st11" d="M575.7,297.7c-1,0-1.9-0.8-1.9-1.5v-23.5c0-1,1-1.5,1.9-1.5c1,0,1.9,0.8,1.9,1.5v23.5
					C577.6,297.1,576.7,297.7,575.7,297.7z"/>
			</g>
			<path id="XMLID_7_" class="st5" d="M581.1,298.7c0-0.8-0.6-1.3-1.3-1.3s-1.3,0.6-1.3,1.3c0,0.8,0.6,1.3,1.3,1.3
				S581.1,299.4,581.1,298.7z"/>
			<path id="XMLID_10_" class="st5" d="M581.4,291.8c0-0.6-0.4-1-1-1c-0.6,0-1,0.4-1,1c0,0.6,0.4,1,1,1
				C581.1,292.7,581.4,292.4,581.4,291.8z"/>
			<path id="XMLID_202_" class="st5" d="M581.4,273.6c0-0.6-0.4-1-1-1c-0.6,0-1,0.4-1,1c0,0.6,0.4,1,1,1
				C581.1,274.4,581.4,274,581.4,273.6z"/>
			<path id="XMLID_33_" class="st5" d="M578.6,301.3c0-0.6-0.4-1-1-1s-1,0.4-1,1c0,0.6,0.4,1,1,1
				C578.2,302.1,578.6,301.7,578.6,301.3z"/>
			<path id="XMLID_11_" class="st5" d="M580.1,286.2c0-0.8-0.6-1.3-1.3-1.3c-0.8,0-1.3,0.6-1.3,1.3c0,0.8,0.6,1.3,1.3,1.3
				C579.5,287.6,580.1,287,580.1,286.2z"/>
			<path id="XMLID_204_" class="st5" d="M580.1,269.4c0-0.8-0.6-1.3-1.3-1.3c-0.8,0-1.3,0.6-1.3,1.3c0,0.8,0.6,1.3,1.3,1.3
				C579.5,270.8,580.1,270.2,580.1,269.4z"/>
		</g>
		<g id="XMLID_209_">
			<g id="XMLID_225_">
				<g id="XMLID_247_" class="st31">
					<path id="XMLID_248_" class="st11" d="M561,308.8L561,308.8c-2.9,0-5.3-2.3-5.3-5.3v-42.6h10.5v42.6
						C566.4,306.5,564.1,308.8,561,308.8z"/>
				</g>
				<g id="XMLID_242_" class="st27">
					<g id="XMLID_243_">
						<path id="XMLID_244_" class="st33" d="M561,308.8L561,308.8c-2.9,0-5.3-2.3-5.3-5.3v-18h10.5v18
							C566.4,306.5,564.1,308.8,561,308.8z"/>
					</g>
				</g>
				<g id="XMLID_235_">
					<path id="XMLID_239_" class="st2" d="M564.1,261.6v42c0,1.7-1.3,3.1-3.1,3.1c-1.7,0-3.1-1.3-3.1-3.1v-42H564.1 M566.4,260.8
						h-10.5v42.6c0,2.9,2.3,5.3,5.3,5.3c2.9,0,5.3-2.3,5.3-5.3v-42.6H566.4z"/>
				</g>
				<g id="XMLID_233_">
					<path id="XMLID_234_" class="st2" d="M566.5,260.8h-11.1c-0.6,0-1.1-0.6-1.1-1.1l0,0c0-0.6,0.6-1.1,1.1-1.1h11.1
						c0.6,0,1.1,0.6,1.1,1.1l0,0C567.9,260.5,567.3,260.8,566.5,260.8z"/>
				</g>
				<g id="XMLID_229_">
					<rect id="XMLID_230_" x="555.8" y="260.8" class="st3" width="10.5" height="0.8"/>
				</g>
			</g>
			<g id="XMLID_223_" class="st31">
				<path id="XMLID_224_" class="st11" d="M557.9,297.7c-1,0-1.9-0.8-1.9-1.5v-23.5c0-1,1-1.5,1.9-1.5c1,0,1.9,0.8,1.9,1.5v23.5
					C559.9,297.1,558.9,297.7,557.9,297.7z"/>
			</g>
			<path id="XMLID_222_" class="st5" d="M563.5,303.6c0-0.8-0.6-1.3-1.3-1.3s-1.3,0.6-1.3,1.3c0,0.8,0.6,1.3,1.3,1.3
				S563.5,304.4,563.5,303.6z"/>
			<path id="XMLID_218_" class="st5" d="M563.3,295.4c0-0.6-0.4-1-1-1s-1,0.4-1,1c0,0.6,0.4,1,1,1S563.3,296,563.3,295.4z"/>
			<path id="XMLID_214_" class="st5" d="M560.2,299c0-0.6-0.4-1-1-1s-1,0.4-1,1c0,0.6,0.4,1,1,1C559.9,300,560.2,299.6,560.2,299z"
				/>
			<path id="XMLID_213_" class="st5" d="M563.5,288.3c0-0.8-0.6-1.3-1.3-1.3s-1.3,0.6-1.3,1.3c0,0.8,0.6,1.3,1.3,1.3
				S563.5,289.1,563.5,288.3z"/>
		</g>
		<g id="XMLID_249_">
			<g id="XMLID_301_">
				<g id="XMLID_391_" class="st31">
					<path id="XMLID_393_" class="st11" d="M543.6,308.8L543.6,308.8c-2.9,0-5.3-2.3-5.3-5.3v-42.6h10.5v42.6
						C548.8,306.5,546.5,308.8,543.6,308.8z"/>
				</g>
				<g id="XMLID_387_" class="st27">
					<g id="XMLID_389_">
						<path id="XMLID_390_" class="st1" d="M543.6,308.8L543.6,308.8c-2.9,0-5.3-2.3-5.3-5.3v-24.1h10.5v24.1
							C548.8,306.5,546.5,308.8,543.6,308.8z"/>
					</g>
				</g>
				<g id="XMLID_378_">
					<path id="XMLID_379_" class="st2" d="M546.7,261.6v42c0,1.7-1.3,3.1-3.1,3.1c-1.7,0-3.1-1.3-3.1-3.1v-42H546.7 M548.8,260.8
						h-10.5v42.6c0,2.9,2.3,5.3,5.3,5.3c2.9,0,5.3-2.3,5.3-5.3v-42.6H548.8z"/>
				</g>
				<g id="XMLID_376_">
					<path id="XMLID_377_" class="st2" d="M549.2,260.8h-11.1c-0.6,0-1.1-0.6-1.1-1.1l0,0c0-0.6,0.6-1.1,1.1-1.1h11.1
						c0.6,0,1.1,0.6,1.1,1.1l0,0C550.3,260.5,549.7,260.8,549.2,260.8z"/>
				</g>
				<g id="XMLID_304_">
					<rect id="XMLID_307_" x="538.3" y="260.8" class="st3" width="10.5" height="0.8"/>
				</g>
			</g>
			<g id="XMLID_268_" class="st31">
				<path id="XMLID_298_" class="st11" d="M540.8,297.7c-1,0-1.5-0.8-1.5-1.5v-23.5c0-1,0.8-1.5,1.5-1.5c0.8,0,1.5,0.8,1.5,1.5v23.5
					C542.3,297.1,541.5,297.7,540.8,297.7z"/>
			</g>
			<path id="XMLID_263_" class="st5" d="M543.8,299.2c0-0.8-0.6-1.3-1.3-1.3s-1.3,0.6-1.3,1.3c0,0.8,0.6,1.3,1.3,1.3
				C543.2,300.8,543.8,300,543.8,299.2z"/>
			<path id="XMLID_262_" class="st5" d="M545,287.4c0-0.6-0.4-1-1-1c-0.6,0-1,0.4-1,1c0,0.6,0.4,1,1,1
				C544.6,288.3,545,288,545,287.4z"/>
			<path id="XMLID_258_" class="st5" d="M545.7,302.7c0-0.6-0.4-1-1-1s-1,0.4-1,1c0,0.6,0.4,1,1,1S545.7,303.2,545.7,302.7z"/>
			<path id="XMLID_257_" class="st5" d="M545.9,281.9c0-0.8-0.6-1.3-1.3-1.3s-1.3,0.6-1.3,1.3c0,0.8,0.6,1.3,1.3,1.3
				C545.3,283.2,545.9,282.6,545.9,281.9z"/>
		</g>
		<g id="XMLID_394_">
			<g id="XMLID_405_">
				<g id="XMLID_421_" class="st31">
					<path id="XMLID_422_" class="st11" d="M526,308.8L526,308.8c-2.9,0-5.3-2.3-5.3-5.3v-42.6h10.5v42.6
						C531.4,306.5,529.1,308.8,526,308.8z"/>
				</g>
				<g id="XMLID_415_" class="st27">
					<g id="XMLID_417_">
						<path id="XMLID_419_" class="st28" d="M526,308.8L526,308.8c-2.9,0-5.3-2.3-5.3-5.3v-33.8h10.5v33.8
							C531.4,306.5,529.1,308.8,526,308.8z"/>
					</g>
				</g>
				<g id="XMLID_410_">
					<path id="XMLID_411_" class="st2" d="M529.1,261.6v42c0,1.7-1.3,3.1-3.1,3.1c-1.7,0-3.1-1.3-3.1-3.1v-42H529.1 M531.4,260.8
						h-10.5v42.6c0,2.9,2.3,5.3,5.3,5.3c2.9,0,5.3-2.3,5.3-5.3v-42.6H531.4z"/>
				</g>
				<g id="XMLID_408_">
					<path id="XMLID_409_" class="st2" d="M531.6,260.8h-11.1c-0.6,0-1.1-0.6-1.1-1.1l0,0c0-0.6,0.6-1.1,1.1-1.1h11.1
						c0.6,0,1.1,0.6,1.1,1.1l0,0C532.9,260.5,532.4,260.8,531.6,260.8z"/>
				</g>
				<g id="XMLID_406_">
					<rect id="XMLID_407_" x="520.9" y="260.8" class="st3" width="10.5" height="0.8"/>
				</g>
			</g>
			<g id="XMLID_403_" class="st31">
				<path id="XMLID_404_" class="st11" d="M523.4,297.7c-1,0-1.9-0.8-1.9-1.5v-23.5c0-1,1-1.5,1.9-1.5c1,0,1.9,0.8,1.9,1.5v23.5
					C525.3,297.1,524.1,297.7,523.4,297.7z"/>
			</g>
			<path id="XMLID_402_" class="st5" d="M529.3,294.8c0-0.8-0.6-1.3-1.3-1.3s-1.3,0.6-1.3,1.3c0,0.8,0.6,1.3,1.3,1.3
				C528.7,296.4,529.3,295.6,529.3,294.8z"/>
			<path id="XMLID_401_" class="st5" d="M526.8,286.1c0-0.6-0.4-1-1-1c-0.6,0-1,0.4-1,1c0,0.6,0.4,1,1,1
				C526.4,286.8,526.8,286.4,526.8,286.1z"/>
			<path id="XMLID_400_" class="st5" d="M528.3,270.6c0-0.6-0.4-1-1-1s-1,0.4-1,1c0,0.6,0.4,1,1,1S528.3,271.2,528.3,270.6z"/>
			<path id="XMLID_399_" class="st5" d="M526,299c0-0.6-0.4-1-1-1s-1,0.4-1,1c0,0.6,0.4,1,1,1S526,299.6,526,299z"/>
			<path id="XMLID_396_" class="st5" d="M528.5,276.1c0-0.8-0.6-1.3-1.3-1.3s-1.3,0.6-1.3,1.3c0,0.8,0.6,1.3,1.3,1.3
				C528,277.3,528.5,276.7,528.5,276.1z"/>
		</g>
		<path id="XMLID_84_" class="st34" d="M594.1,310.9c0.2-0.6-0.2-1-0.2-1.3v-42.4c0-3.1-2.3-5.5-5.3-5.5h-73c-3.1,0-5.5,2.5-5.5,5.5
			v42.4c0,0.4,0,0.8,0.2,1.3h-2.7v5h89.6v-5H594.1z M513.2,309.4V267c0-1.3,1.1-2.3,2.5-2.3h73c1.3,0,2.1,1,2.1,2.3v42.4
			c0,0.6,0.2,0.8-0.2,1.3h-77C513.4,310.1,513.2,309.9,513.2,309.4z"/>
		<g id="XMLID_294_">
			<polygon id="XMLID_509_" class="st35" points="488.8,182.7 482.1,189.8 485.5,192.8 481.3,215.9 488.8,250.1 496.2,216.5 
				491.7,192.8 494.5,190 			"/>
		</g>
	</g>
</g>
<path id="Path_29313" class="st36" d="M305.6,197.3h-86.9c-2.7,0-4.8-2.2-4.9-5c0-0.9,0.2-1.9,0.7-2.7l36.1-58.4c0.6-1,1-2.2,1-3.5
	l0-18h20.8l0,18c0,1.2,0.3,2.4,1,3.5l36.1,58.4c1.4,2.4,0.7,5.5-1.6,6.9C307.4,197,306.5,197.3,305.6,197.3z"/>
<path id="Path_29316" class="st37" d="M299.7,193h-75.4c-3.4,0-4.5-2.5-2.7-5.3l16.6-26.9c2.3-0.5,4.7-0.7,7.1-0.6
	c10.4,1,13.1,6.1,24,5.5c3.1-0.2,6.2-0.8,9.1-1.8c0.6-0.2,1.3-0.5,1.9-0.7c2-0.8,3.8-1.9,5.5-3.2l16.7,27.8
	C304.1,190.5,303,193,299.7,193z"/>
<path id="Path_29318" class="st38" d="M272.3,112.5h-20.2c-2.7,0-4.9-2.3-4.9-5.1V107c0-2.8,2.2-5.1,4.9-5.1h20.2
	c2.7,0,4.9,2.3,4.9,5.1v0.5C277.2,110.2,275,112.5,272.3,112.5z"/>
<ellipse id="Ellipse_432" class="st39" cx="239.4" cy="181.8" rx="3.3" ry="3.5"/>
<ellipse id="Ellipse_433" class="st40" cx="270.8" cy="151.5" rx="3.3" ry="3.5"/>
<ellipse id="Ellipse_434" class="st39" cx="277.1" cy="185.1" rx="3.6" ry="3.8"/>
<ellipse id="Ellipse_435" class="st39" cx="264.6" cy="173.6" rx="4.6" ry="4.7"/>
<g id="Group_1491" transform="translate(1092.945 -2387.699)">
	<path id="Path_29319" class="st38" d="M-945,2515.3h96.5c0.7,0,1.3-0.6,1.3-1.4c0,0,0,0,0,0c0-0.8-0.6-1.4-1.3-1.4H-945
		c-0.7,0-1.3,0.6-1.3,1.4c0,0,0,0,0,0C-946.3,2514.7-945.7,2515.3-945,2515.3z"/>
</g>
<path id="Path_29320" class="st41" d="M127.7,313.2h75.6c0-12.6-9.9-22.9-22.1-22.9h-31.5C137.6,290.3,127.7,300.5,127.7,313.2
	C127.7,313.2,127.7,313.2,127.7,313.2z"/>
<g id="Group_1492" transform="translate(1114.633 -2460.407)">
	<path id="Path_29321" class="st41" d="M-951.8,2531.5v230.7c0,1.5,1.2,2.7,2.7,2.7c1.4,0,2.5-1.2,2.6-2.7v-230.7
		c0-1.5-1.2-2.7-2.6-2.6c-0.7,0-1.4,0.3-1.9,0.8c0,0,0,0,0,0c0,0,0,0,0,0C-951.5,2530.1-951.8,2530.8-951.8,2531.5z"/>
</g>
<path id="Path_29322" class="st38" d="M162.9,290.9c1.6-0.4,2.6-0.6,2.6-0.6V73.7c-1.6-1.6-2-3.1-1.9-4.5c0,0,0,0,0,0c0,0,0,0,0,0
	c0.1-0.8,0.3-1.5,0.7-2.1H158v6.6h4.9v216.6h-13.1c-12.2,0-22.1,10.2-22.1,22.9h22.2C133.4,299.9,155,292.9,162.9,290.9z"/>
<path id="Path_29323" class="st41" d="M244.4,126.1v0.3c0,2.2,1.7,3.9,3.8,4c0,0,0,0,0.1,0h28c0.9,0,1.8-0.3,2.4-0.9h0
	c0.8-0.8,1.3-1.9,1.3-3v-0.3c0-2.2-1.7-4-3.8-4c0,0,0,0,0,0h-28C246.1,122.1,244.4,123.8,244.4,126.1
	C244.4,126,244.4,126,244.4,126.1z"/>
<path id="Path_29324" class="st41" d="M158,122.1v7.3c0,2.3,1.8,4.2,4,4.2c0,0,0,0,0,0h7c2.2,0,4-1.9,4-4.2c0,0,0,0,0,0v-7.2
	c0-2.3-1.8-4.2-4-4.2l0,0h-7C159.8,118,158,119.8,158,122.1C158,122.1,158,122.1,158,122.1z"/>
<path id="Path_29325" class="st41" d="M141.5,121.3v9c0,1.8,1.4,3.3,3.2,3.3c0.4,0,0.8-0.1,1.2-0.2c0,0,0,0,0,0c1.2-0.5,2-1.7,2-3.1
	v-9c0-1.8-1.4-3.3-3.2-3.3c0,0,0,0,0,0c-0.5,0-0.9,0.1-1.3,0.3C141.8,119.7,141.5,120.4,141.5,121.3z"/>
<path id="Path_29327" class="st38" d="M141.5,121.3v9c0,1.8,1.4,3.3,3.2,3.3c0.4,0,0.8-0.1,1.2-0.2c-2.9-2.4-2.8-10.5-2.6-15
	C141.8,119.7,141.5,120.4,141.5,121.3z"/>
<path id="Path_29328" class="st38" d="M244.4,126.1v0.3c0,2.2,1.7,3.9,3.8,4c0,0,0,0,0.1,0h28c0.9,0,1.8-0.3,2.4-0.9
	c-5.1,1-16.1,2-20.5-7.3h-9.9C246.1,122.1,244.4,123.8,244.4,126.1C244.4,126,244.4,126,244.4,126.1z"/>
<path id="Path_29338" class="st37" d="M280.8,72.9c0,7.6-6,13.8-13.4,13.8c-1.6,0-3.2-0.3-4.6-0.9h0c-0.4-0.2-0.9-0.4-1.3-0.6
	c-3,4.3-8.8,5.2-12.9,2.1c-4.1-3.1-5-9.1-2-13.4c0.3-0.5,0.7-0.9,1.1-1.3c-1.8-1.9-2.8-4.6-2.8-7.3c0-5.5,4-10.1,9.3-10.6
	c-0.2-0.8-0.3-1.5-0.3-2.3c0-2.7,1.1-5.3,3-7.2c-2.7-1.3-4.5-4.1-4.5-7.2c0-4.3,3.4-7.8,7.6-7.8c0,0,0,0,0,0c0.6,0,1.2,0.1,1.8,0.2
	c4,1,6.5,5.2,5.6,9.4c-0.2,1.1-0.7,2-1.3,2.9c5.2,1.4,8.3,6.8,7,12.1c-0.4,1.7-1.2,3.3-2.4,4.5C276.5,60.9,280.8,66.5,280.8,72.9z"
	/>
<path id="Path_29363" class="st37" d="M273.2,15.2c2.8,0,5,2.3,5,5.2s-2.2,5.2-5,5.2c-2.8,0-5-2.3-5-5.2c0,0,0,0,0,0
	C268.1,17.6,270.4,15.2,273.2,15.2z"/>
<path id="Path_29339" class="st39" d="M280.8,72.9c0,7.6-6,13.8-13.4,13.8c-1.6,0-3.2-0.3-4.6-0.9c16.5-12.5,0-24.8,0-24.8
	c3.6-1.8,5.8-5.8,5.3-10c-0.5-4.6-7.4-7.2-7.4-7.2c5-4.6,2.4-10.7,0.9-13.4c4,1,6.5,5.2,5.6,9.4c-0.2,1.1-0.7,2-1.3,2.9
	c5.2,1.4,8.3,6.8,7,12.1c-0.4,1.7-1.2,3.3-2.4,4.5C276.5,60.9,280.8,66.5,280.8,72.9z"/>
<path id="Path_29340" class="st39" d="M273.9,15.3c0.7,0.9,1.1,2.1,1.1,3.2c0,2.9-2.2,5.2-5,5.2c0,0,0,0,0,0c-0.3,0-0.5,0-0.8-0.1
	c1.7,2.2,4.9,2.6,7,0.8c2.2-1.8,2.5-5.1,0.8-7.3C276.3,16.2,275.2,15.5,273.9,15.3L273.9,15.3z"/>
</svg>
