<?xml version="1.0" encoding="utf-8"?>
<!-- Generator: Adobe Illustrator 24.0.2, SVG Export Plug-In . SVG Version: 6.00 Build 0)  -->
<svg version="1.1" id="Layer_1" xmlns="http://www.w3.org/2000/svg" xmlns:xlink="http://www.w3.org/1999/xlink" x="0px" y="0px"
	 viewBox="0 0 768.4 384.9" style="enable-background:new 0 0 768.4 384.9;" xml:space="preserve">
<style type="text/css">
	.st0{opacity:0.56;fill:#FFFFFF;}
	.st1{fill:#3FA9F5;}
	.st2{fill:#CCCCCC;}
	.st3{fill:#B3B3B3;}
	.st4{opacity:0.45;fill:#FFFFFF;}
	.st5{opacity:0.3;fill:#FFFFFF;}
	.st6{fill:#FAB085;}
	.st7{fill:#4CADBC;}
	.st8{opacity:0.26;}
	.st9{fill:#E6E6E6;}
	.st10{fill:#ED1C24;}
	.st11{fill:#FFFFFF;}
	.st12{fill:none;}
	.st13{fill:none;stroke:#F48B6C;stroke-width:0;stroke-linecap:round;stroke-linejoin:round;}
	.st14{fill:#F48B6C;}
	.st15{fill:#F58D6C;}
	.st16{opacity:0.5;}
	.st17{fill:#8E3926;}
	.st18{fill:#D75265;}
	.st19{fill:#333333;}
	.st20{fill:#754C24;}
	.st21{fill:#EA8063;}
	.st22{fill:#772C20;}
	.st23{fill:#702720;}
	.st24{opacity:0.16;}
	.st25{fill:#42210B;}
	.st26{fill:#D8EA3E;}
	.st27{fill:#B0B116;}
	.st28{opacity:0.75;}
	.st29{fill:#7AC943;}
	.st30{opacity:0.56;}
	.st31{opacity:0.47;}
	.st32{opacity:0.4;}
	.st33{fill:#FF931E;}
	.st34{fill:#FF1D25;}
	.st35{fill:#9D532E;}
	.st36{fill:#FF0000;}
</style>
<g>
	<g id="XMLID_6_">
		
			<rect id="XMLID_9_" x="608" y="267.4" transform="matrix(1 -2.003407e-03 2.003407e-03 1 -0.5439 1.2219)" class="st0" width="3.2" height="9.3"/>
		<path id="XMLID_48_" class="st1" d="M608.1,289.4c0,0.9,0.7,1.6,1.6,1.6c0.9,0,1.6-0.7,1.6-1.6l0-12.6l-3.2,0L608.1,289.4z
			 M610.4,288.5c0.3,0,0.5,0.2,0.5,0.5c0,0.3-0.2,0.5-0.5,0.5c-0.3,0-0.5-0.2-0.5-0.5C609.9,288.7,610.1,288.5,610.4,288.5z
			 M609.1,287.9c-0.4,0-0.7-0.3-0.7-0.7c0-0.4,0.3-0.7,0.7-0.7c0.4,0,0.7,0.3,0.7,0.7C609.8,287.5,609.5,287.9,609.1,287.9z
			 M610,280.5c0.3,0,0.5,0.2,0.5,0.5c0,0.3-0.2,0.5-0.5,0.5c-0.3,0-0.5-0.2-0.5-0.5C609.5,280.7,609.7,280.5,610,280.5z
			 M610.2,277.3c0.4,0,0.7,0.3,0.7,0.7c0,0.4-0.3,0.7-0.7,0.7c-0.4,0-0.7-0.3-0.7-0.7C609.5,277.6,609.8,277.3,610.2,277.3z"/>
		<path id="XMLID_52_" class="st2" d="M612.4,289.4l0-22.3l0.2,0c0.3,0,0.5-0.2,0.5-0.5l0-0.2c0-0.3-0.2-0.5-0.5-0.5l-6,0
			c-0.3,0-0.5,0.2-0.5,0.5l0,0.2c0,0.3,0.2,0.5,0.5,0.5l0.2,0l0,0l5.5,0l0,0.4l-1.2,0l0,9.3l0,12.6c0,0.9-0.7,1.6-1.6,1.6
			c-0.9,0-1.6-0.7-1.6-1.6l0-12.6l0.1-9.3l-1.1,0v-0.1l0,22c0,1.5,1.2,2.8,2.7,2.8c0.2,0,0.4,0,0.5-0.1c0.1,0,0.2,0,0.3-0.1
			c0.3-0.1,0.5-0.2,0.7-0.4c0.1,0,0.1-0.1,0.2-0.2c0.3-0.2,0.5-0.5,0.7-0.8C612.3,290.3,612.4,289.9,612.4,289.4z"/>
		<polygon id="XMLID_53_" class="st3" points="608.1,267.4 611.3,267.4 612.4,267.4 612.4,267 606.9,267.1 606.9,267.1 607,267.3 
			607,267.4 		"/>
		<path id="XMLID_54_" class="st4" d="M609.9,273.3c0-0.5-0.4-0.8-0.8-0.8c-0.5,0-0.8,0.4-0.8,0.8l0,12.3c0,0.5,0.4,0.8,0.8,0.8
			c0.5,0,0.8-0.4,0.8-0.8L609.9,273.3z"/>
		<path id="XMLID_56_" class="st1" d="M609.1,286.4c-0.4,0-0.7,0.3-0.7,0.7c0,0.4,0.3,0.7,0.7,0.7c0.4,0,0.7-0.3,0.7-0.7
			C609.8,286.7,609.5,286.4,609.1,286.4z"/>
		<path id="XMLID_55_" class="st5" d="M609.1,286.4c-0.4,0-0.7,0.3-0.7,0.7c0,0.4,0.3,0.7,0.7,0.7c0.4,0,0.7-0.3,0.7-0.7
			C609.8,286.7,609.5,286.4,609.1,286.4z"/>
		<path id="XMLID_58_" class="st1" d="M610,281.4c0.3,0,0.5-0.2,0.5-0.5c0-0.3-0.2-0.5-0.5-0.5c-0.3,0-0.5,0.2-0.5,0.5
			C609.5,281.2,609.7,281.4,610,281.4z"/>
		<path id="XMLID_57_" class="st5" d="M610,281.4c0.3,0,0.5-0.2,0.5-0.5c0-0.3-0.2-0.5-0.5-0.5c-0.3,0-0.5,0.2-0.5,0.5
			C609.5,281.2,609.7,281.4,610,281.4z"/>
		<path id="XMLID_60_" class="st1" d="M610.4,289.4c0.3,0,0.5-0.2,0.5-0.5c0-0.3-0.2-0.5-0.5-0.5c-0.3,0-0.5,0.2-0.5,0.5
			C609.9,289.2,610.1,289.4,610.4,289.4z"/>
		<path id="XMLID_59_" class="st5" d="M610.4,289.4c0.3,0,0.5-0.2,0.5-0.5c0-0.3-0.2-0.5-0.5-0.5c-0.3,0-0.5,0.2-0.5,0.5
			C609.9,289.2,610.1,289.4,610.4,289.4z"/>
		<path id="XMLID_62_" class="st1" d="M609.5,278c0,0.4,0.3,0.7,0.7,0.7c0.4,0,0.7-0.3,0.7-0.7c0-0.4-0.3-0.7-0.7-0.7
			C609.8,277.3,609.5,277.6,609.5,278z"/>
		<path id="XMLID_61_" class="st5" d="M609.5,278c0,0.4,0.3,0.7,0.7,0.7c0.4,0,0.7-0.3,0.7-0.7c0-0.4-0.3-0.7-0.7-0.7
			C609.8,277.3,609.5,277.6,609.5,278z"/>
	</g>
	<path id="XMLID_13_" class="st6" d="M615.8,285c-0.1-0.3-0.3-0.6-0.6-0.7c0.8-0.3,1.3-1.2,1.1-2.1c-0.1-0.6-0.5-1-1-1.3
		c0.5-0.4,0.8-0.9,0.8-1.6c0-0.9-0.6-1.7-1.4-1.9c0.7-0.2,1.3-0.9,1.4-1.7c0.1-1.1-0.6-2.1-1.7-2.2l-4.8-0.6
		c-1.1-0.1-2.1,0.6-2.2,1.7c-0.1,1,0.5,1.9,1.4,2.2c0.1,0,0.2,0.1,0.3,0.1l3.3,0.4l-3.1-0.1c-1.1,0-2,0.9-2,2c0,0.8,0.4,1.5,1.1,1.8
		c0.3,0.1,0.5,0.2,0.8,0.2l2.8,0.1l-2.2,0.5c-1,0.2-1.6,1.2-1.4,2.2c0.2,0.7,0.7,1.2,1.4,1.4c0.2,0.1,0.5,0.1,0.8,0l0.4-0.1
		l-0.7,0.3c-0.8,0.3-1.3,1.3-0.9,2.2c0.2,0.4,0.4,0.7,0.8,0.9c0.4,0.2,0.9,0.2,1.4,0l3.4-1.4C615.7,286.8,616.1,285.8,615.8,285z"/>
	<g>
		<g id="XMLID_335_">
			<g id="XMLID_352_">
				<path id="XMLID_623_" class="st6" d="M483.6,280.8l-3-5.8l0.3-5.2c0.1-1.1-0.8-2.1-1.9-2.1l0,0c-0.6,0-1.1,0.5-1.2,1.1l-0.7,4.8
					c-0.3,1.7-1.8,3-3.5,2.8l-2.5-0.2l-2.1,11.7l13,0.6L483.6,280.8z"/>
			</g>
			<g id="XMLID_351_">
				<polygon id="XMLID_621_" class="st7" points="488,283 483.6,280.8 481.9,288.6 485.2,291.2 				"/>
			</g>
			<g id="XMLID_1_">
				<path id="XMLID_3_" class="st8" d="M472.5,280.9c0.2,0.1,0.7,0.5,1.4,0.5c0.6,0,1.1-0.3,1.3-0.5l0.3-0.2l0.3,0.2
					c0.2,0.2,0.7,0.4,1.4,0.4c0,0,0,0,0,0c0.6,0,1.2-0.2,1.4-0.4l-1.7-4.1v-10.1h-3v10.2L472.5,280.9L472.5,280.9z"/>
				<path id="XMLID_25_" class="st9" d="M484.7,289.8l-5.8-13.5v-11.9H472v12l-5.5,13.5c-0.6,1.6-0.5,3.3,0.5,4.7
					c0.9,1.4,2.5,2.2,4.2,2.2h9c1.7,0,3.3-0.8,4.2-2.2C485.2,293.1,485.4,291.4,484.7,289.8z M469.5,293.3c-0.6-0.9-0.7-2.1-0.3-3.1
					c0.6-1.4,1.1-2.8,1.7-4.2c0.5-1.3,1-2.7,1.6-4c0.4,0.2,0.9,0.4,1.5,0.4c0.7,0,1.3-0.2,1.6-0.4c0.4,0.2,1,0.6,1.7,0.6
					c0,0,0,0,0,0c0.6,0,1.1-0.2,1.5-0.4l3.4,8.1c0.4,0.9,0.3,2.1-0.3,3c-0.5,0.8-1.4,1.5-2.3,1.5h-7.6
					C470.9,294.8,470,294.1,469.5,293.3z M473.9,266.7h3v10.1l1.7,4.1c-0.2,0.2-0.8,0.4-1.4,0.4c0,0,0,0,0,0c-0.7,0-1.2-0.2-1.4-0.4
					l-0.3-0.2l-0.3,0.2c-0.2,0.2-0.7,0.5-1.3,0.5c-0.7,0-1.2-0.3-1.4-0.5l-0.1,0l1.6-4V266.7z"/>
				<path id="XMLID_29_" class="st10" d="M481.7,293.3c0.6-0.9,0.7-2.1,0.3-3l-3.4-8.1c-0.4,0.2-0.9,0.4-1.5,0.4c0,0,0,0,0,0
					c-0.7,0-1.3-0.3-1.7-0.6c-0.4,0.2-0.9,0.4-1.6,0.4c-0.6,0-1.1-0.2-1.5-0.4c-0.5,1.3-1.1,2.7-1.6,4c-0.5,1.4-1.1,2.8-1.7,4.2
					c-0.4,0.9-0.3,2.2,0.3,3.1c0.5,0.8,1.4,1.5,2.3,1.5h7.6C480.3,294.8,481.2,294.1,481.7,293.3z M478.9,291c0,0.5-0.4,0.9-0.9,0.9
					c-0.5,0-0.9-0.4-0.9-0.9c0-0.5,0.4-0.9,0.9-0.9C478.5,290.1,478.9,290.5,478.9,291z M477.5,284.2c0.3,0,0.6,0.3,0.6,0.6
					c0,0.3-0.3,0.6-0.6,0.6s-0.6-0.3-0.6-0.6C476.9,284.5,477.2,284.2,477.5,284.2z M475.8,286.1c0.5,0,0.9,0.4,0.9,0.9
					c0,0.5-0.4,0.9-0.9,0.9c-0.5,0-0.9-0.4-0.9-0.9C474.9,286.5,475.3,286.1,475.8,286.1z M473.4,285c0.4,0,0.7,0.3,0.7,0.7
					c0,0.4-0.3,0.7-0.7,0.7c-0.4,0-0.7-0.3-0.7-0.7C472.7,285.3,473,285,473.4,285z M472.8,288.5c0.7,0,1.2,0.5,1.2,1.2
					c0,0.7-0.5,1.2-1.2,1.2c-0.7,0-1.2-0.5-1.2-1.2C471.6,289.1,472.1,288.5,472.8,288.5z"/>
				<path id="XMLID_40_" class="st11" d="M473.4,286.3c0.4,0,0.7-0.3,0.7-0.7c0-0.4-0.3-0.7-0.7-0.7c-0.4,0-0.7,0.3-0.7,0.7
					C472.7,286,473,286.3,473.4,286.3z"/>
				<path id="XMLID_41_" class="st11" d="M475.8,287.8c0.5,0,0.9-0.4,0.9-0.9c0-0.5-0.4-0.9-0.9-0.9c-0.5,0-0.9,0.4-0.9,0.9
					C474.9,287.5,475.3,287.8,475.8,287.8z"/>
				<path id="XMLID_42_" class="st11" d="M472.8,291c0.7,0,1.2-0.5,1.2-1.2c0-0.7-0.5-1.2-1.2-1.2c-0.7,0-1.2,0.5-1.2,1.2
					C471.6,290.4,472.1,291,472.8,291z"/>
				<path id="XMLID_43_" class="st11" d="M477.2,291c0,0.5,0.4,0.9,0.9,0.9c0.5,0,0.9-0.4,0.9-0.9c0-0.5-0.4-0.9-0.9-0.9
					C477.5,290.1,477.2,290.5,477.2,291z"/>
				<path id="XMLID_44_" class="st11" d="M477.5,285.4c0.3,0,0.6-0.3,0.6-0.6c0-0.3-0.3-0.6-0.6-0.6s-0.6,0.3-0.6,0.6
					C476.9,285.1,477.2,285.4,477.5,285.4z"/>
			</g>
			<path id="XMLID_2_" class="st6" d="M475.5,275.3l-4.8-0.8c-1.1-0.2-2.1,0.5-2.3,1.6c-0.1,0.6,0,1.1,0.4,1.5
				c-0.5,0.2-0.9,0.5-1.2,1.1c-0.4,0.8-0.1,1.8,0.5,2.3c-0.7,0.1-1.4,0.5-1.7,1.2c-0.3,0.6-0.2,1.3,0.1,1.8
				c-0.2,0.1-0.4,0.2-0.6,0.3c-0.7,0.6-0.8,1.7-0.2,2.3l2.4,2.8c0.3,0.4,0.8,0.6,1.3,0.6c0.4,0,0.8-0.1,1.1-0.4
				c0.7-0.6,0.8-1.7,0.2-2.3l-1.3-1.5l2.4,1.1c0.3,0.1,0.6,0.2,0.8,0.2c0.8,0,1.5-0.4,1.8-1.2c0.4-0.8,0.1-1.8-0.5-2.3
				c0.7-0.1,1.4-0.5,1.7-1.2c0.5-1,0-2.2-1-2.6l-1.8-0.8l2,0.3c0.1,0,0.2,0,0.3,0c1,0,1.8-0.7,2-1.7
				C477.3,276.6,476.6,275.5,475.5,275.3z"/>
		</g>
		<g id="XMLID_334_">
			<path id="XMLID_585_" class="st6" d="M601.6,280.8l3-5.8l-0.3-5.2c-0.1-1.1,0.8-2.1,1.9-2.1h0.8l1.2,9.4l1.6,11.7l-6.5-0.3
				L601.6,280.8z"/>
		</g>
		<g id="XMLID_333_">
			<polygon id="XMLID_583_" class="st7" points="597.2,283 601.6,280.8 603.3,288.6 600,291.2 			"/>
		</g>
		<path id="XMLID_14_" class="st11" d="M597,282.4l-13.6,6.1c-0.9,0.4-2,0.3-2.8-0.3l-16-12.5l0,0l-0.1-0.2
			c-6.5-1.9-19.9-3.2-21.9-3.4v0c0,0,0.1,0,0,0c-0.1,0,0,0,0,0v0c-2,0.2-15.4,1.5-21.9,3.4l-0.1,0.3l-0.1-0.1l-15.2,11.9
			c-1.3,1-3,1.2-4.5,0.5l-12.7-5.7l-3.2,9.4l16.8,10.6c2,1.3,4.6,1.1,6.5-0.3l10.2-8l-5.5,47.2h29.4h0.3h29.4l-5.5-47.1l10.4,8.2
			c1.7,1.3,4.1,1.5,5.9,0.3l17.1-10.8L597,282.4z"/>
		<g id="XMLID_12_">
			<path id="XMLID_15_" class="st11" d="M542.3,271.6c-0.7-0.1-4.8-0.4-11.6,1.8c-0.4,0.5-3.6,5.6-4.9,14.9l3.6,0.9l-4.3,3.5
				c0.8,1.5,8.6,17,17.2,25.8V271.6z"/>
			<path id="XMLID_22_" class="st11" d="M559.4,288.3c-1.3-9.2-4.5-14.3-4.8-14.9c-6.9-2.2-11.3-1.9-11.6-1.8v46.8
				c7.9-8.8,16.3-24.3,17.2-25.8l-4.3-3.4L559.4,288.3z"/>
			<path id="XMLID_66_" class="st2" d="M556.5,289.3l3.2-0.8l0-0.1c-1.3-9.9-5-15.2-5-15.2l0,0l-0.1,0c-7.7-2.5-12-1.8-12.1-1.8l0,0
				l0,0c-0.2,0-4.2-0.6-12,1.8l-0.1,0l0,0c0,0.1-3.6,5.3-5,15.2l0,0.1l3.2,0.8l-4,3.2l0.1,0.1c0.1,0.2,9,17.1,17.6,26.3v0.3l0.2-0.2
				l0.1,0.2V319l0,0c8.6-9.2,17.6-26.2,17.7-26.3l0.1-0.1L556.5,289.3z M543,318.4v-46.8c0.3-0.1,4.8-0.4,11.6,1.8
				c0.4,0.5,3.6,5.6,4.8,14.9l-3.5,0.9l4.3,3.4C559.3,294.1,550.9,309.6,543,318.4z M529.4,289.1l-3.6-0.9
				c1.3-9.2,4.5-14.3,4.9-14.9c6.8-2.2,11-1.9,11.6-1.8v46.8c-8.6-8.8-16.4-24.3-17.2-25.8L529.4,289.1z"/>
		</g>
		<g id="XMLID_19_">
			<path id="XMLID_21_" class="st12" d="M542.7,279.2c0,0-6.5-6-7.2-6.6L542.7,279.2L542.7,279.2z"/>
			<path id="XMLID_70_" class="st12" d="M549.9,272.6c-0.6,0.6-7.1,6.5-7.2,6.6L549.9,272.6z"/>
			<path id="XMLID_71_" class="st6" d="M535.4,268.1v4.5c1,0.6,7.3,6.6,7.3,6.6l0,0c0.1-0.1,6.6-6,7.2-6.6c0-0.4,0-0.7,0-1
				c0-1.9,0-2.3,0-3.5c-1.3,0.6-4,1.6-7.4,1.6C539.3,269.8,536.7,268.8,535.4,268.1z"/>
			<line id="XMLID_72_" class="st13" x1="549.9" y1="271.6" x2="549.9" y2="268"/>
			<path id="XMLID_74_" class="st14" d="M535.4,266.9v1.2c1.3,0.6,3.9,1.6,7.2,1.6c3.4,0,6-1,7.4-1.6c0-0.4,0-1,0-1.7
				c-2.6,0.6-5.6,1-8.5,1C539.4,267.4,537.3,267.3,535.4,266.9z"/>
			<path id="XMLID_75_" class="st6" d="M572.9,230.7h-0.5v-9c0-17.1-13.8-31-30.9-31h0c-17.1,0-30.9,13.9-30.9,31v9h0.1
				c-3,0-5.4,2.7-5.4,5.6v4.8c0,3.4,2.7,6.1,6.1,6.2c2.8,9.9,12.2,17.6,24.1,19.6c1.9,0.3,3.9,0.5,6,0.5c2.9,0,5.7-0.3,8.4-1
				c10.7-2.5,19.1-9.7,21.7-18.9h0.7c3.4,0,6.3-2.8,6.3-6.2v-5C578.6,233.2,576,230.7,572.9,230.7z"/>
			<polygon id="XMLID_80_" class="st7" points="542.7,279.2 542.7,279.2 535.5,272.6 533.6,273.1 542.7,314.5 551.8,273.2 
				549.9,272.6 542.7,279.2 			"/>
		</g>
		<g id="XMLID_309_">
			<path id="XMLID_527_" class="st15" d="M537.2,243.6c-0.1-0.3,0.1-0.6,0.3-0.5c1,0.5,2.5,1,4.4,1c1.8,0,3.3-0.5,4.3-1
				c0.2-0.1,0.5,0.2,0.3,0.5C544.4,247.5,539.3,247.4,537.2,243.6z"/>
		</g>
		<g id="XMLID_308_" class="st16">
			<path id="XMLID_245_" class="st15" d="M539.3,262.5c-0.1-0.1,0-0.3,0.2-0.3c0.5,0.3,1.4,0.6,2.4,0.5c1,0,1.8-0.3,2.3-0.6
				c0.1-0.1,0.3,0.1,0.2,0.3C543.3,264.6,540.5,264.5,539.3,262.5z"/>
		</g>
		<g id="XMLID_4_">
			<path id="XMLID_5_" class="st17" d="M570.1,235.5C570.1,235.5,570.1,235.5,570.1,235.5C570.1,235.5,570.1,235.5,570.1,235.5z"/>
			<path id="XMLID_369_" class="st17" d="M556.3,186.7c-33.2-7.1-40.4,6.6-41.9,12.4c-0.6-1.4-1.1-3-1.1-2.9
				c-1.5,2.2-1.5,3.8-1.2,5.7c-4.4,1.3-14.3,6.9-5.2,30.7c0,0,5.1-3.2,5.9,2c0,0,1-9.6,5.3-14.4c4.3-4.8,4-6.3,4.2-9.9
				c0,0,8.4,2.7,16.4,4c2.4,0.4,4.8,1,7,2c2.1,0.9,4,2,5.9,3.3c-1.6-1.8-3.3-3.3-5.1-4.7c0.1,0,0.2,0,0.3,0c1.5-0.1,3.2-0.1,5,0
				c1.6,0.7,2.9,1.9,3.5,4.1c0.1-1.5-0.3-2.8-0.9-3.8c7.7,1.2,15.6,5.8,15.7,20.5c0-0.4,0-5.5,5.2-4
				C575.3,231.5,592,194.3,556.3,186.7z"/>
		</g>
		<g id="XMLID_297_">
			<path id="XMLID_515_" class="st17" d="M529.6,251.8c2.5,1,6.6,2.3,11.9,2.3c5.4,0,9.6-1.3,12.1-2.3c-1.5,5.6-5.8,9.3-11.9,9.3
				C536.5,261.1,532.1,258.9,529.6,251.8z"/>
		</g>
		<g id="XMLID_296_">
			<path id="XMLID_513_" class="st18" d="M534.8,259.2c2,1.4,4.4,1.9,6.9,1.9c2.6,0,4.9-0.7,6.8-1.9c-1.4-2.2-4-3.7-6.8-3.7
				C538.8,255.5,536.2,257,534.8,259.2z"/>
		</g>
		<g id="XMLID_289_">
			<g id="XMLID_293_">
				<path id="XMLID_507_" class="st11" d="M533.2,236.2c0-2.3-1.9-4.2-4.2-4.2c-2.3,0-4.2,1.9-4.2,4.2c0,2.3,1.9,4.2,4.2,4.2
					C531.3,240.4,533.2,238.5,533.2,236.2z"/>
			</g>
			<g id="XMLID_292_">
				<path id="XMLID_505_" class="st19" d="M531.2,236.2c0-1.2-1-2.2-2.2-2.2c-1.2,0-2.2,1-2.2,2.2c0,1.2,1,2.2,2.2,2.2
					C530.2,238.4,531.2,237.4,531.2,236.2z"/>
			</g>
			<g id="XMLID_291_">
				<path id="XMLID_503_" class="st11" d="M530.8,235.4c0-0.5-0.4-1-1-1s-1,0.4-1,1c0,0.5,0.4,1,1,1S530.8,235.9,530.8,235.4z"/>
			</g>
			<g id="XMLID_290_">
				<path id="XMLID_250_" class="st20" d="M523.6,233.3c-0.1,0-0.3,0-0.4-0.1c-0.4-0.2-0.5-0.7-0.3-1c3.2-5.4,8.7-3,8.7-3
					c0.4,0.2,0.5,0.6,0.4,1c-0.2,0.4-0.6,0.5-1,0.4c-0.2-0.1-4.4-1.9-6.8,2.4C524.1,233.2,523.9,233.3,523.6,233.3z"/>
			</g>
		</g>
		<g id="XMLID_284_">
			<g id="XMLID_288_">
				<path id="XMLID_498_" class="st11" d="M550.9,236.2c0-2.3,1.9-4.2,4.2-4.2c2.3,0,4.2,1.9,4.2,4.2c0,2.3-1.9,4.2-4.2,4.2
					C552.8,240.4,550.9,238.5,550.9,236.2z"/>
			</g>
			<g id="XMLID_287_">
				<path id="XMLID_496_" class="st19" d="M552.9,236.2c0-1.2,1-2.2,2.2-2.2c1.2,0,2.2,1,2.2,2.2c0,1.2-1,2.2-2.2,2.2
					C553.9,238.4,552.9,237.4,552.9,236.2z"/>
			</g>
			<g id="XMLID_286_">
				<path id="XMLID_494_" class="st11" d="M553.3,235.4c0-0.5,0.4-1,1-1c0.5,0,1,0.4,1,1c0,0.5-0.4,1-1,1
					C553.7,236.3,553.3,235.9,553.3,235.4z"/>
			</g>
			<g id="XMLID_285_">
				<path id="XMLID_246_" class="st20" d="M560.5,233.3c-0.3,0-0.5-0.1-0.6-0.4c-2.5-4.2-6.7-2.4-6.8-2.4c-0.4,0.2-0.8,0-1-0.4
					c-0.2-0.4,0-0.8,0.4-1c0.1,0,5.6-2.4,8.7,3c0.2,0.4,0.1,0.8-0.3,1C560.7,233.2,560.6,233.3,560.5,233.3z"/>
			</g>
		</g>
		<g id="XMLID_283_">
			<polygon id="XMLID_489_" class="st21" points="629.7,355.5 455.5,355.5 481.3,339.7 603.9,339.7 			"/>
		</g>
		<g id="XMLID_282_">
			<rect id="XMLID_487_" x="455.5" y="355.5" class="st17" width="174.3" height="7.5"/>
		</g>
		<g id="XMLID_281_">
			<rect id="XMLID_485_" x="458.8" y="363" class="st22" width="167.5" height="1.7"/>
		</g>
		<g id="XMLID_280_">
			<rect id="XMLID_483_" x="459.7" y="364.7" class="st23" width="165.7" height="20.5"/>
		</g>
		<g id="XMLID_279_">
			<path id="XMLID_481_" class="st15" d="M510.9,234.4L510.9,234.4l0,8.7l0,0c-1.6,0-2.9-1.3-2.9-2.9v-3
				C508.1,235.7,509.4,234.4,510.9,234.4z"/>
		</g>
		<g id="XMLID_278_">
			<path id="XMLID_479_" class="st15" d="M573,235.1L573,235.1v8l0,0c1.6,0,2.9-1.3,2.9-2.9V238C575.9,236.4,574.6,235.1,573,235.1z
				"/>
		</g>
		<g id="XMLID_277_" class="st24">
			<ellipse id="XMLID_237_" class="st18" cx="525.1" cy="244.2" rx="4.4" ry="1.7"/>
		</g>
		<g id="XMLID_276_" class="st24">
			<ellipse id="XMLID_32_" class="st18" cx="559.6" cy="244.2" rx="4.4" ry="1.7"/>
		</g>
		<g id="XMLID_272_">
			<path id="XMLID_470_" class="st25" d="M578,228.8c-0.2-0.9-1-1.5-2-1.3l-4.6,0.9c-2.4-4.4-7-7.3-12.4-7.3c-6,0-11,3.7-13.1,8.9
				c-1.1-0.4-2.4-0.8-4-0.8c0,0-0.1,0-0.1,0c-1.4,0-2.8,0.3-4,0.8c-2-5.3-7.2-9-13.1-9c-5.3,0-10,3-12.4,7.3l-4.5-0.9
				c-0.9-0.2-1.8,0.4-2,1.3c-0.2,0.9,0.4,1.8,1.3,2l3.9,0.8c-0.3,1.1-0.5,2.4-0.5,3.6c0,7.8,6.3,14.1,14.1,14.1s14.1-6.3,14.1-14.1
				c0-0.6,0-1.3-0.1-1.9c0.8-0.4,1.9-0.9,3.2-0.9c0,0,0,0,0.1,0c1.3,0,2.4,0.4,3.2,0.8c-0.1,0.6-0.1,1.3-0.1,1.9
				c0,7.8,6.3,14.1,14.1,14.1s14.1-6.3,14.1-14.1c0-1.2-0.2-2.4-0.5-3.6l3.9-0.8C577.6,230.5,578.2,229.7,578,228.8z M524.8,245.8
				c-5.9,0-10.8-4.8-10.8-10.8c0-5.9,4.8-10.8,10.8-10.8c5.9,0,10.8,4.8,10.8,10.8C535.5,241,530.7,245.8,524.8,245.8z M559.2,245.8
				c-5.9,0-10.8-4.8-10.8-10.8c0-5.9,4.8-10.8,10.8-10.8c5.9,0,10.8,4.8,10.8,10.8C569.9,241,565.1,245.8,559.2,245.8z"/>
		</g>
		<g id="XMLID_206_">
			<g id="XMLID_208_">
				<path id="XMLID_397_" class="st26" d="M509.6,348.4H502c-3.5,0-6.3-2.4-6.3-5.4l0,0h20.2l0,0C515.9,346,513.1,348.4,509.6,348.4
					z"/>
			</g>
			<g id="XMLID_207_">
				<path id="XMLID_395_" class="st27" d="M516,343h-20.9c-0.5,0-0.8-0.4-0.8-0.8l0,0c0-0.5,0.4-0.8,0.8-0.8H516
					c0.5,0,0.8,0.4,0.8,0.8v0C516.9,342.6,516.5,343,516,343z"/>
			</g>
		</g>
		<g id="XMLID_203_">
			<path id="XMLID_392_" class="st11" d="M540.7,348.2h-10c-1.5,0-2.8-1.2-2.8-2.8v-23.2h15.5v23.2
				C543.4,346.9,542.2,348.2,540.7,348.2z"/>
		</g>
		<g id="XMLID_198_">
			<path id="XMLID_388_" class="st2" d="M542.3,331.9v13.5c0,0.9-0.7,1.6-1.6,1.6h-10c-0.9,0-1.6-0.7-1.6-1.6v-13.5H542.3
				 M543.4,331.3h-15.5v14.1c0,1.5,1.2,2.8,2.8,2.8h10c1.5,0,2.8-1.2,2.8-2.8v-14.7V331.3z"/>
		</g>
		<g id="XMLID_197_">
			<rect id="XMLID_227_" x="542.3" y="312.6" class="st2" width="0.7" height="27.1"/>
		</g>
		<g id="XMLID_196_">
			<path id="XMLID_384_" class="st2" d="M543.6,331.3h-15.7c-0.3,0-0.6-0.3-0.6-0.6v0c0-0.3,0.3-0.6,0.6-0.6h15.7
				c0.3,0,0.6,0.3,0.6,0.6l0,0C544.2,331.1,543.9,331.3,543.6,331.3z"/>
		</g>
		<g id="XMLID_195_">
			<rect id="XMLID_382_" x="527.9" y="331.3" class="st3" width="15.5" height="0.5"/>
		</g>
		<g id="XMLID_192_" class="st28">
			<g id="XMLID_299_">
				<path id="XMLID_380_" class="st29" d="M540.7,348.2h-10c-1.5,0-2.8-1.2-2.8-2.8v-9.5h15.5v9.5
					C543.4,346.9,542.2,348.2,540.7,348.2z"/>
			</g>
		</g>
		<g id="XMLID_191_" class="st30">
			<path id="XMLID_228_" class="st11" d="M530.2,344.3c-0.5,0-0.8-0.4-0.8-0.8v-10.5c0-0.5,0.4-0.8,0.8-0.8s0.8,0.4,0.8,0.8v10.5
				C531.1,343.9,530.7,344.3,530.2,344.3z"/>
		</g>
		<g id="XMLID_34_" class="st31">
			<g id="XMLID_37_">
				<path id="XMLID_375_" class="st11" d="M539,339.7c0-0.5-0.4-0.9-0.9-0.9c-0.5,0-0.9,0.4-0.9,0.9c0,0.5,0.4,0.9,0.9,0.9
					C538.6,340.5,539,340.2,539,339.7z"/>
			</g>
			<g id="XMLID_36_">
				<path id="XMLID_373_" class="st11" d="M536.4,342.4c0-0.7-0.5-1.2-1.2-1.2c-0.7,0-1.2,0.5-1.2,1.2c0,0.7,0.5,1.2,1.2,1.2
					C535.8,343.7,536.4,343.1,536.4,342.4z"/>
			</g>
			<g id="XMLID_35_">
				<path id="XMLID_371_" class="st11" d="M541.2,343.7c0-0.5-0.4-0.9-0.9-0.9c-0.5,0-0.9,0.4-0.9,0.9c0,0.5,0.4,0.9,0.9,0.9
					C540.8,344.5,541.2,344.1,541.2,343.7z"/>
			</g>
		</g>
		<g id="XMLID_8_">
			<g id="XMLID_215_">
				<g id="XMLID_226_" class="st32">
					<path id="XMLID_424_" class="st11" d="M589.7,345.2L589.7,345.2c-1.5,0-2.8-1.2-2.8-2.8v-22.3h5.5v22.3
						C592.5,344,591.2,345.2,589.7,345.2z"/>
				</g>
				<g id="XMLID_216_" class="st28">
					<g id="XMLID_199_">
						<path id="XMLID_414_" class="st33" d="M589.7,345.2L589.7,345.2c-1.5,0-2.8-1.2-2.8-2.8v-17.7h5.5v17.7
							C592.5,344,591.2,345.2,589.7,345.2z"/>
					</g>
				</g>
				<g id="XMLID_221_">
					<path id="XMLID_420_" class="st2" d="M591.3,320.5v22c0,0.9-0.7,1.6-1.6,1.6s-1.6-0.7-1.6-1.6v-22H591.3 M592.5,320.1h-5.5
						v22.3c0,1.5,1.2,2.8,2.8,2.8c1.5,0,2.8-1.2,2.8-2.8V320.1L592.5,320.1z"/>
				</g>
				<g id="XMLID_220_">
					<path id="XMLID_418_" class="st2" d="M592.6,320.1h-5.8c-0.3,0-0.6-0.3-0.6-0.6v0c0-0.3,0.3-0.6,0.6-0.6h5.8
						c0.3,0,0.6,0.3,0.6,0.6l0,0C593.2,319.9,592.9,320.1,592.6,320.1z"/>
				</g>
				<g id="XMLID_219_">
					<rect id="XMLID_416_" x="586.9" y="320.1" class="st3" width="5.5" height="0.4"/>
				</g>
			</g>
			<g id="XMLID_211_" class="st32">
				<path id="XMLID_238_" class="st11" d="M588.2,339.4c-0.5,0-1-0.4-1-0.8v-12.3c0-0.5,0.5-0.8,1-0.8c0.5,0,1,0.4,1,0.8v12.3
					C589.2,339.1,588.7,339.4,588.2,339.4z"/>
			</g>
			<path id="XMLID_7_" class="st5" d="M591,339.9c0-0.4-0.3-0.7-0.7-0.7c-0.4,0-0.7,0.3-0.7,0.7s0.3,0.7,0.7,0.7
				C590.7,340.6,591,340.3,591,339.9z"/>
			<path id="XMLID_10_" class="st5" d="M591.2,336.3c0-0.3-0.2-0.5-0.5-0.5c-0.3,0-0.5,0.2-0.5,0.5c0,0.3,0.2,0.5,0.5,0.5
				C591,336.8,591.2,336.6,591.2,336.3z"/>
			<path id="XMLID_202_" class="st5" d="M591.2,326.8c0-0.3-0.2-0.5-0.5-0.5c-0.3,0-0.5,0.2-0.5,0.5c0,0.3,0.2,0.5,0.5,0.5
				C591,327.2,591.2,327,591.2,326.8z"/>
			<path id="XMLID_33_" class="st5" d="M589.7,341.3c0-0.3-0.2-0.5-0.5-0.5c-0.3,0-0.5,0.2-0.5,0.5c0,0.3,0.2,0.5,0.5,0.5
				C589.5,341.7,589.7,341.5,589.7,341.3z"/>
			<path id="XMLID_11_" class="st5" d="M590.5,333.4c0-0.4-0.3-0.7-0.7-0.7s-0.7,0.3-0.7,0.7c0,0.4,0.3,0.7,0.7,0.7
				S590.5,333.8,590.5,333.4z"/>
			<path id="XMLID_204_" class="st5" d="M590.5,324.6c0-0.4-0.3-0.7-0.7-0.7s-0.7,0.3-0.7,0.7c0,0.4,0.3,0.7,0.7,0.7
				S590.5,325,590.5,324.6z"/>
		</g>
		<g id="XMLID_209_">
			<g id="XMLID_225_">
				<g id="XMLID_247_" class="st32">
					<path id="XMLID_248_" class="st11" d="M580.5,345.2L580.5,345.2c-1.5,0-2.8-1.2-2.8-2.8v-22.3h5.5v22.3
						C583.3,344,582.1,345.2,580.5,345.2z"/>
				</g>
				<g id="XMLID_242_" class="st28">
					<g id="XMLID_243_">
						<path id="XMLID_244_" class="st34" d="M580.5,345.2L580.5,345.2c-1.5,0-2.8-1.2-2.8-2.8v-9.4h5.5v9.4
							C583.3,344,582.1,345.2,580.5,345.2z"/>
					</g>
				</g>
				<g id="XMLID_235_">
					<path id="XMLID_239_" class="st2" d="M582.1,320.5v22c0,0.9-0.7,1.6-1.6,1.6s-1.6-0.7-1.6-1.6v-22H582.1 M583.3,320.1h-5.5
						v22.3c0,1.5,1.2,2.8,2.8,2.8c1.5,0,2.8-1.2,2.8-2.8V320.1L583.3,320.1z"/>
				</g>
				<g id="XMLID_233_">
					<path id="XMLID_234_" class="st2" d="M583.4,320.1h-5.8c-0.3,0-0.6-0.3-0.6-0.6l0,0c0-0.3,0.3-0.6,0.6-0.6h5.8
						c0.3,0,0.6,0.3,0.6,0.6v0C584.1,319.9,583.8,320.1,583.4,320.1z"/>
				</g>
				<g id="XMLID_229_">
					<rect id="XMLID_230_" x="577.8" y="320.1" class="st3" width="5.5" height="0.4"/>
				</g>
			</g>
			<g id="XMLID_223_" class="st32">
				<path id="XMLID_224_" class="st11" d="M578.9,339.4c-0.5,0-1-0.4-1-0.8v-12.3c0-0.5,0.5-0.8,1-0.8c0.5,0,1,0.4,1,0.8v12.3
					C579.9,339.1,579.4,339.4,578.9,339.4z"/>
			</g>
			<path id="XMLID_222_" class="st5" d="M581.8,342.5c0-0.4-0.3-0.7-0.7-0.7c-0.4,0-0.7,0.3-0.7,0.7c0,0.4,0.3,0.7,0.7,0.7
				C581.5,343.2,581.8,342.9,581.8,342.5z"/>
			<path id="XMLID_218_" class="st5" d="M581.7,338.2c0-0.3-0.2-0.5-0.5-0.5c-0.3,0-0.5,0.2-0.5,0.5s0.2,0.5,0.5,0.5
				C581.5,338.7,581.7,338.5,581.7,338.2z"/>
			<path id="XMLID_214_" class="st5" d="M580.1,340.1c0-0.3-0.2-0.5-0.5-0.5c-0.3,0-0.5,0.2-0.5,0.5c0,0.3,0.2,0.5,0.5,0.5
				C579.9,340.6,580.1,340.4,580.1,340.1z"/>
			<path id="XMLID_213_" class="st5" d="M581.8,334.5c0-0.4-0.3-0.7-0.7-0.7c-0.4,0-0.7,0.3-0.7,0.7c0,0.4,0.3,0.7,0.7,0.7
				C581.5,335.2,581.8,334.9,581.8,334.5z"/>
		</g>
		<g id="XMLID_249_">
			<g id="XMLID_301_">
				<g id="XMLID_391_" class="st32">
					<path id="XMLID_393_" class="st11" d="M571.4,345.2L571.4,345.2c-1.5,0-2.8-1.2-2.8-2.8v-22.3h5.5v22.3
						C574.1,344,572.9,345.2,571.4,345.2z"/>
				</g>
				<g id="XMLID_387_" class="st28">
					<g id="XMLID_389_">
						<path id="XMLID_390_" class="st1" d="M571.4,345.2L571.4,345.2c-1.5,0-2.8-1.2-2.8-2.8v-12.6h5.5v12.6
							C574.1,344,572.9,345.2,571.4,345.2z"/>
					</g>
				</g>
				<g id="XMLID_378_">
					<path id="XMLID_379_" class="st2" d="M573,320.5v22c0,0.9-0.7,1.6-1.6,1.6c-0.9,0-1.6-0.7-1.6-1.6v-22H573 M574.1,320.1h-5.5
						v22.3c0,1.5,1.2,2.8,2.8,2.8c1.5,0,2.8-1.2,2.8-2.8V320.1L574.1,320.1z"/>
				</g>
				<g id="XMLID_376_">
					<path id="XMLID_377_" class="st2" d="M574.3,320.1h-5.8c-0.3,0-0.6-0.3-0.6-0.6v0c0-0.3,0.3-0.6,0.6-0.6h5.8
						c0.3,0,0.6,0.3,0.6,0.6l0,0C574.9,319.9,574.6,320.1,574.3,320.1z"/>
				</g>
				<g id="XMLID_304_">
					<rect id="XMLID_307_" x="568.6" y="320.1" class="st3" width="5.5" height="0.4"/>
				</g>
			</g>
			<g id="XMLID_268_" class="st32">
				<path id="XMLID_298_" class="st11" d="M569.9,339.4c-0.5,0-0.8-0.4-0.8-0.8v-12.3c0-0.5,0.4-0.8,0.8-0.8s0.8,0.4,0.8,0.8v12.3
					C570.7,339.1,570.3,339.4,569.9,339.4z"/>
			</g>
			<path id="XMLID_263_" class="st5" d="M571.5,340.2c0-0.4-0.3-0.7-0.7-0.7c-0.4,0-0.7,0.3-0.7,0.7s0.3,0.7,0.7,0.7
				C571.2,341,571.5,340.6,571.5,340.2z"/>
			<path id="XMLID_262_" class="st5" d="M572.1,334c0-0.3-0.2-0.5-0.5-0.5c-0.3,0-0.5,0.2-0.5,0.5c0,0.3,0.2,0.5,0.5,0.5
				C571.9,334.5,572.1,334.3,572.1,334z"/>
			<path id="XMLID_258_" class="st5" d="M572.5,342c0-0.3-0.2-0.5-0.5-0.5c-0.3,0-0.5,0.2-0.5,0.5c0,0.3,0.2,0.5,0.5,0.5
				C572.3,342.5,572.5,342.3,572.5,342z"/>
			<path id="XMLID_257_" class="st5" d="M572.6,331.1c0-0.4-0.3-0.7-0.7-0.7c-0.4,0-0.7,0.3-0.7,0.7c0,0.4,0.3,0.7,0.7,0.7
				C572.3,331.8,572.6,331.5,572.6,331.1z"/>
		</g>
		<g id="XMLID_394_">
			<g id="XMLID_405_">
				<g id="XMLID_421_" class="st32">
					<path id="XMLID_422_" class="st11" d="M562.2,345.2L562.2,345.2c-1.5,0-2.8-1.2-2.8-2.8v-22.3h5.5v22.3
						C565,344,563.8,345.2,562.2,345.2z"/>
				</g>
				<g id="XMLID_415_" class="st28">
					<g id="XMLID_417_">
						<path id="XMLID_419_" class="st29" d="M562.2,345.2L562.2,345.2c-1.5,0-2.8-1.2-2.8-2.8v-17.7h5.5v17.7
							C565,344,563.8,345.2,562.2,345.2z"/>
					</g>
				</g>
				<g id="XMLID_410_">
					<path id="XMLID_411_" class="st2" d="M563.8,320.5v22c0,0.9-0.7,1.6-1.6,1.6s-1.6-0.7-1.6-1.6v-22H563.8 M565,320.1h-5.5v22.3
						c0,1.5,1.2,2.8,2.8,2.8c1.5,0,2.8-1.2,2.8-2.8V320.1L565,320.1z"/>
				</g>
				<g id="XMLID_408_">
					<path id="XMLID_409_" class="st2" d="M565.1,320.1h-5.8c-0.3,0-0.6-0.3-0.6-0.6v0c0-0.3,0.3-0.6,0.6-0.6h5.8
						c0.3,0,0.6,0.3,0.6,0.6l0,0C565.8,319.9,565.5,320.1,565.1,320.1z"/>
				</g>
				<g id="XMLID_406_">
					<rect id="XMLID_407_" x="559.5" y="320.1" class="st3" width="5.5" height="0.4"/>
				</g>
			</g>
			<g id="XMLID_403_" class="st32">
				<path id="XMLID_404_" class="st11" d="M560.8,339.4c-0.5,0-1-0.4-1-0.8v-12.3c0-0.5,0.5-0.8,1-0.8s1,0.4,1,0.8v12.3
					C561.8,339.1,561.2,339.4,560.8,339.4z"/>
			</g>
			<path id="XMLID_402_" class="st5" d="M563.9,337.9c0-0.4-0.3-0.7-0.7-0.7c-0.4,0-0.7,0.3-0.7,0.7c0,0.4,0.3,0.7,0.7,0.7
				C563.6,338.7,563.9,338.3,563.9,337.9z"/>
			<path id="XMLID_401_" class="st5" d="M562.6,333.3c0-0.3-0.2-0.5-0.5-0.5c-0.3,0-0.5,0.2-0.5,0.5c0,0.3,0.2,0.5,0.5,0.5
				C562.4,333.7,562.6,333.5,562.6,333.3z"/>
			<path id="XMLID_400_" class="st5" d="M563.4,325.2c0-0.3-0.2-0.5-0.5-0.5c-0.3,0-0.5,0.2-0.5,0.5s0.2,0.5,0.5,0.5
				C563.2,325.7,563.4,325.5,563.4,325.2z"/>
			<path id="XMLID_399_" class="st5" d="M562.2,340.1c0-0.3-0.2-0.5-0.5-0.5c-0.3,0-0.5,0.2-0.5,0.5c0,0.3,0.2,0.5,0.5,0.5
				C562,340.6,562.2,340.4,562.2,340.1z"/>
			<path id="XMLID_396_" class="st5" d="M563.5,328.1c0-0.4-0.3-0.7-0.7-0.7c-0.4,0-0.7,0.3-0.7,0.7c0,0.4,0.3,0.7,0.7,0.7
				C563.2,328.7,563.5,328.4,563.5,328.1z"/>
		</g>
		<path id="XMLID_84_" class="st35" d="M597.8,346.3c0.1-0.3-0.1-0.5-0.1-0.7v-22.2c0-1.6-1.2-2.9-2.8-2.9h-38.2
			c-1.6,0-2.9,1.3-2.9,2.9v22.2c0,0.2,0,0.4,0.1,0.7h-1.4v2.6h46.9v-2.6H597.8z M555.5,345.5v-22.2c0-0.7,0.6-1.2,1.3-1.2H595
			c0.7,0,1.1,0.5,1.1,1.2v22.2c0,0.3,0.1,0.4-0.1,0.7h-40.3C555.6,345.9,555.5,345.8,555.5,345.5z"/>
		<g id="XMLID_294_">
			<polygon id="XMLID_509_" class="st36" points="542.7,279.2 539.2,282.9 541,284.5 538.8,296.6 542.7,314.5 546.6,296.9 
				544.2,284.5 545.7,283 			"/>
		</g>
	</g>
</g>
</svg>
